<svg xmlns="http://www.w3.org/2000/svg" width="24" height="24" viewBox="0 0 24 24">
    <defs>
        <clipPath id="bmkdruxgca">
            <path data-name="사각형 22682" transform="translate(95 645)" style="fill:#2a323b" d="M0 0h24v24H0z"/>
        </clipPath>
    </defs>
    <g data-name="마스크 그룹 6201" transform="translate(-95 -645)" style="clip-path:url(#bmkdruxgca)">
        <g data-name="그룹 64523">
            <path data-name="Rectangle 427" d="M20 10.75a.75.75 0 0 0 1.5 0zM7.75 21.5a.75.75 0 1 0 0-1.5zm-3-20h12V0h-12zM1.5 16.75v-12H0v12zm18.5-12v6h1.5v-6zM7.75 20h-3v1.5h3zM0 16.75a4.75 4.75 0 0 0 4.75 4.75V20a3.25 3.25 0 0 1-3.25-3.25zM16.75 1.5A3.25 3.25 0 0 1 20 4.75h1.5A4.75 4.75 0 0 0 16.75 0zM4.75 0A4.75 4.75 0 0 0 0 4.75h1.5A3.25 3.25 0 0 1 4.75 1.5z" transform="translate(96.25 646.25)" style="fill:#2a323b"/>
            <path data-name="Vector 1165" d="m3.75 5.75.237.712A.75.75 0 0 0 4.5 5.75zm.75-5a.75.75 0 0 0-1.5 0zM.513 6.038a.75.75 0 0 0 .474 1.424zM4.5 5.75v-5H3v5zm-.987-.712-3 1 .474 1.424 3-1z" transform="translate(103.25 651.25)" style="fill:#2a323b"/>
            <path data-name="Vector 1163" d="M0 3.25a.75.75 0 1 0 1.5 0zm.75 3.5-.45-.6A.75.75 0 0 0 .75 7.5zm4 .75a.75.75 0 1 0 0-1.5zm-.8-3.15-.45-.6zM1.5 3.25v-.5H0v.5zm2 .5L.3 6.15l.9 1.2 3.2-2.4zM.75 7.5h4V6h-4zM4 2.75a1.25 1.25 0 0 1-.5 1l.9 1.2a2.75 2.75 0 0 0 1.1-2.2zM2.75 1.5A1.25 1.25 0 0 1 4 2.75h1.5A2.75 2.75 0 0 0 2.75 0zM1.5 2.75A1.25 1.25 0 0 1 2.75 1.5V0A2.75 2.75 0 0 0 0 2.75z" transform="translate(106.25 660.25)" style="fill:#2a323b"/>
            <path data-name="Vector 1164" d="M1.5.75a.75.75 0 0 0-1.5 0zm4 0a.75.75 0 0 0-1.5 0zm-1.5 6a.75.75 0 1 0 1.5 0zm-4-6v1h1.5v-1zM2.75 4.5h2V3h-2zm2.75-.75v-3H4v3zm-1.5 0v3h1.5v-3zm-4-2A2.75 2.75 0 0 0 2.75 4.5V3A1.25 1.25 0 0 1 1.5 1.75z" transform="translate(112.25 660.25)" style="fill:#2a323b"/>
            <path data-name="Vector 1162" d="M2.22 3.28a.75.75 0 1 0 1.06-1.06zM1.28.22A.75.75 0 1 0 .22 1.28zm2 2-2-2L.22 1.28l2 2z" transform="translate(114.25 654.25)" style="fill:#2a323b"/>
        </g>
    </g>
</svg>
