<svg xmlns="http://www.w3.org/2000/svg" width="24" height="24" viewBox="0 0 24 24">
    <defs>
        <clipPath id="l4fpt2h14a">
            <path data-name="사각형 22536" transform="translate(968 287)" style="stroke:#707070;fill:#2a323b" d="M0 0h24v24H0z"/>
        </clipPath>
        <clipPath id="3zhnlet2bb">
            <path data-name="사각형 23232" transform="translate(775 284)" style="fill:#c6c8cd;stroke:#707070" d="M0 0h24v24H0z"/>
        </clipPath>
    </defs>
    <g style="clip-path:url(#l4fpt2h14a)">
        <g style="clip-path:url(#3zhnlet2bb)" data-name="마스크 그룹 6183" transform="translate(-968 -287)">
            <path d="M11 4.75A3.25 3.25 0 0 1 7.75 8v1.5a4.75 4.75 0 0 0 4.75-4.75zM7.75 8A3.25 3.25 0 0 1 4.5 4.75H3A4.75 4.75 0 0 0 7.75 9.5zM4.5 4.75A3.25 3.25 0 0 1 7.75 1.5V0A4.75 4.75 0 0 0 3 4.75zM7.75 1.5A3.25 3.25 0 0 1 11 4.75h1.5A4.75 4.75 0 0 0 7.75 0zM14 15.25c0 .529-.449 1.211-1.636 1.8A10.613 10.613 0 0 1 7.75 18v1.5a12.092 12.092 0 0 0 5.285-1.1c1.346-.673 2.465-1.742 2.465-3.146zM7.75 18a10.613 10.613 0 0 1-4.614-.946C1.949 16.461 1.5 15.779 1.5 15.25H0c0 1.4 1.118 2.472 2.465 3.146A12.091 12.091 0 0 0 7.75 19.5zM1.5 15.25c0-.529.449-1.21 1.636-1.8a10.613 10.613 0 0 1 4.614-.95V11a12.091 12.091 0 0 0-5.285 1.1C1.118 12.777 0 13.846 0 15.25zm6.25-2.75a10.613 10.613 0 0 1 4.614.946C13.551 14.04 14 14.721 14 15.25h1.5c0-1.4-1.118-2.472-2.465-3.146A12.092 12.092 0 0 0 7.75 11z" transform="translate(972.25 289.25)" style="fill:#c6c8cd" data-name="마스크 그룹 6383"/>
        </g>
    </g>
</svg>
