<svg xmlns="http://www.w3.org/2000/svg" width="24" height="24" viewBox="0 0 24 24">
    <defs>
        <clipPath id="cpkxiazbva">
            <path data-name="사각형 23565" transform="translate(13846 -9168)" style="fill:#fff;stroke:#707070" d="M0 0h24v24H0z"/>
        </clipPath>
    </defs>
    <g data-name="마스크 그룹 6529" transform="translate(-13846 9168)" style="clip-path:url(#cpkxiazbva)">
        <g data-name="그룹 77666">
            <path d="m16.123 5.923-.73.173zM8.75 7a.75.75 0 0 0 0 1.5zM6 5.75a.75.75 0 1 0 1.5 0zM8.528 1.5h1.111V0H8.528zM1.5 12V8.625H0V12zM0 12a2.986 2.986 0 0 0 2.972 3v-1.5A1.486 1.486 0 0 1 1.5 12zm15.556-4.5a5.959 5.959 0 0 1-5.917 6V15a7.459 7.459 0 0 0 7.417-7.5zM8.528 0A8.577 8.577 0 0 0 0 8.625h1.5A7.077 7.077 0 0 1 8.528 1.5zM21.5 16.5v-3.375H20V16.5zm-9.639 3h6.667V18h-6.667zm8.139-3a1.486 1.486 0 0 1-1.472 1.5v1.5a2.986 2.986 0 0 0 2.972-3zm-4.185-9.893A7.131 7.131 0 0 1 20 13.125h1.5a8.631 8.631 0 0 0-5.07-7.886zM9.639 1.5a5.937 5.937 0 0 1 5.754 4.6l1.46-.345A7.437 7.437 0 0 0 9.639 0zm5.754 4.6a6.1 6.1 0 0 1 .163 1.4h1.5a7.6 7.6 0 0 0-.2-1.75zM4.866 14.5a7.425 7.425 0 0 0 7 5V18a5.925 5.925 0 0 1-5.579-4zm4.773-1H5.574V15h4.065zm-4.065 0h-2.6V15h2.6zM10 5.75A1.25 1.25 0 0 1 8.75 7v1.5a2.75 2.75 0 0 0 2.75-2.75zm-2.5 0A1.25 1.25 0 0 1 8.75 4.5V3A2.75 2.75 0 0 0 6 5.75zM8.75 4.5A1.25 1.25 0 0 1 10 5.75h1.5A2.75 2.75 0 0 0 8.75 3z" transform="translate(13847.248 -9165.75)" style="fill:#28303f"/>
            <path data-name="Ellipse 579" d="M2 1a1 1 0 1 1-1-1 1 1 0 0 1 1 1z" transform="translate(13854.998 -9156)" style="fill:#28303f"/>
        </g>
    </g>
</svg>
