<svg width="24" height="24" viewBox="0 0 24 24" fill="none" xmlns="http://www.w3.org/2000/svg">
<g clip-path="url(#clip0_608_3251)">
<mask id="mask0_608_3251" style="mask-type:luminance" maskUnits="userSpaceOnUse" x="0" y="0" width="24" height="24">
<path d="M24 0H0V24H24V0Z" fill="white"/>
</mask>
<g mask="url(#mask0_608_3251)">
<path d="M11 22V22.75C11.1989 22.75 11.3897 22.671 11.5303 22.5303C11.671 22.3897 11.75 22.1989 11.75 22H11ZM7 22H6.25C6.25 22.1989 6.32902 22.3897 6.46967 22.5303C6.61032 22.671 6.80109 22.75 7 22.75V22ZM10.25 18V22H11.75V18H10.25ZM11 21.25H7V22.75H11V21.25ZM7.75 22V18H6.25V22H7.75ZM9 16.75C9.33152 16.75 9.64946 16.8817 9.88388 17.1161C10.1183 17.3505 10.25 17.6685 10.25 18H11.75C11.75 17.2707 11.4603 16.5712 10.9445 16.0555C10.4288 15.5397 9.72935 15.25 9 15.25V16.75ZM9 15.25C8.27065 15.25 7.57118 15.5397 7.05546 16.0555C6.53973 16.5712 6.25 17.2707 6.25 18H7.75C7.75 17.6685 7.8817 17.3505 8.11612 17.1161C8.35054 16.8817 8.66848 16.75 9 16.75V15.25Z" fill="#CCCCCC"/>
<path d="M16.083 8.25C16.083 8.05109 16.004 7.86032 15.8633 7.71967C15.7227 7.57902 15.5319 7.5 15.333 7.5C15.1341 7.5 14.9433 7.57902 14.8027 7.71967C14.662 7.86032 14.583 8.05109 14.583 8.25H16.083ZM9.41701 8.25C9.41701 8.05109 9.33799 7.86032 9.19734 7.71967C9.05669 7.57902 8.86592 7.5 8.66701 7.5C8.4681 7.5 8.27733 7.57902 8.13668 7.71967C7.99603 7.86032 7.91701 8.05109 7.91701 8.25H9.41701ZM21.25 6V8.25H22.75V6H21.25ZM18.667 11.25C17.9282 11.1907 17.2427 10.8424 16.7591 10.2807C16.2755 9.71909 16.0319 8.98939 16.083 8.25H14.583C14.5305 9.38746 14.9316 10.4994 15.6967 11.3427C16.4619 12.186 17.5298 12.692 18.667 12.75V11.25ZM21.25 8.25C21.3014 8.98945 21.0589 9.7193 20.5752 10.281C20.0916 10.8427 19.4059 11.1909 18.667 11.25V12.75C19.8042 12.692 20.8722 12.186 21.6373 11.3427C22.4024 10.4994 22.8025 9.38746 22.75 8.25H21.25ZM12 11.25C11.2611 11.1909 10.5754 10.8427 10.0918 10.281C9.60813 9.7193 9.36566 8.98945 9.41701 8.25H7.91701C7.8645 9.38746 8.26457 10.4994 9.02972 11.3427C9.79486 12.186 10.8628 12.692 12 12.75V11.25ZM14.583 8.25C14.6344 8.98945 14.3919 9.7193 13.9082 10.281C13.4246 10.8427 12.7389 11.1909 12 11.25V12.75C13.1372 12.692 14.2052 12.186 14.9703 11.3427C15.7354 10.4994 16.1355 9.38746 16.083 8.25H14.583ZM2.75001 8.25V6H1.25001V8.25H2.75001ZM5.33301 11.25C4.59413 11.1909 3.9084 10.8427 3.42477 10.281C2.94113 9.7193 2.69866 8.98945 2.75001 8.25H1.25001C1.1975 9.38746 1.59757 10.4994 2.36272 11.3427C3.12786 12.186 4.19581 12.692 5.33301 12.75V11.25ZM7.91701 8.25C7.96809 8.98939 7.72552 9.71909 7.24194 10.2807C6.75836 10.8424 6.07178 11.1907 5.33301 11.25V12.75C6.4702 12.692 7.53916 12.186 8.3043 11.3427C9.06944 10.4994 9.46951 9.38746 9.41701 8.25H7.91701ZM18 1.25H6.00001V2.75H18V1.25ZM2.75001 6C2.75001 5.13805 3.09242 4.3114 3.70191 3.7019C4.3114 3.09241 5.13805 2.75 6.00001 2.75V1.25C4.74023 1.25 3.53205 1.75044 2.64125 2.64124C1.75045 3.53204 1.25001 4.74022 1.25001 6H2.75001ZM22.75 6C22.75 4.74022 22.2496 3.53204 21.3588 2.64124C20.468 1.75044 19.2598 1.25 18 1.25V2.75C18.862 2.75 19.6886 3.09241 20.2981 3.7019C20.9076 4.3114 21.25 5.13805 21.25 6H22.75Z" fill="#CCCCCC"/>
<path d="M15 14.75H17V13.25H15V14.75ZM17.25 15V16H18.75V15H17.25ZM17 16.25H15V17.75H17V16.25ZM14.75 16V15H13.25V16H14.75ZM15 16.25C14.9337 16.25 14.8701 16.2237 14.8232 16.1768C14.7763 16.1299 14.75 16.0663 14.75 16H13.25C13.25 16.4641 13.4344 16.9092 13.7626 17.2374C14.0908 17.5656 14.5359 17.75 15 17.75V16.25ZM17.25 16C17.25 16.0663 17.2237 16.1299 17.1768 16.1768C17.1299 16.2237 17.0663 16.25 17 16.25V17.75C17.4641 17.75 17.9092 17.5656 18.2374 17.2374C18.5656 16.9092 18.75 16.4641 18.75 16H17.25ZM17 14.75C17.0663 14.75 17.1299 14.7763 17.1768 14.8232C17.2237 14.8701 17.25 14.9337 17.25 15H18.75C18.75 14.5359 18.5656 14.0908 18.2374 13.7626C17.9092 13.4344 17.4641 13.25 17 13.25V14.75ZM15 13.25C14.5359 13.25 14.0908 13.4344 13.7626 13.7626C13.4344 14.0908 13.25 14.5359 13.25 15H14.75C14.75 14.9337 14.7763 14.8701 14.8232 14.8232C14.8701 14.7763 14.9337 14.75 15 14.75V13.25Z" fill="#CCCCCC"/>
<path d="M20.25 11V18H21.75V11H20.25ZM17 21.25H7V22.75H17V21.25ZM3.75 18V11H2.25V18H3.75ZM7 21.25C6.13805 21.25 5.3114 20.9076 4.7019 20.2981C4.09241 19.6886 3.75 18.862 3.75 18H2.25C2.25 19.2598 2.75044 20.468 3.64124 21.3588C4.53204 22.2496 5.74022 22.75 7 22.75V21.25ZM20.25 18C20.25 18.862 19.9076 19.6886 19.2981 20.2981C18.6886 20.9076 17.862 21.25 17 21.25V22.75C18.2598 22.75 19.468 22.2496 20.3588 21.3588C21.2496 20.468 21.75 19.2598 21.75 18H20.25Z" fill="#CCCCCC"/>
</g>
</g>
<defs>
<clipPath id="clip0_608_3251">
<rect width="24" height="24" fill="white"/>
</clipPath>
</defs>
</svg>
