<svg xmlns="http://www.w3.org/2000/svg" width="17" height="17" viewBox="0 0 17 17">
    <defs>
        <clipPath id="8wihbdotba">
            <path data-name="사각형 23923" transform="translate(172 691)" style="stroke:#707070;fill:#666f7b" d="M0 0h17v17H0z"/>
        </clipPath>
    </defs>
    <g data-name="마스크 그룹 6576" transform="translate(-172 -691)" style="clip-path:url(#8wihbdotba)">
        <path d="M2.479 4.781a.531.531 0 1 0-1.062 0zm9.917 0a.531.531 0 0 0-1.062 0zM8.854 6.906a.531.531 0 1 0-1.062 0zm-1.062 4.25a.531.531 0 1 0 1.062 0zm-1.771-4.25a.531.531 0 0 0-1.062 0zm-1.062 4.25a.531.531 0 0 0 1.063 0zm8.323-7.969a.531.531 0 0 0 0-1.062zM.531 2.125a.531.531 0 0 0 0 1.063zm8.212-.963-.443.295zm-3.674 0L4.627.867zm-.288 14.067h4.25v-1.062h-4.25zM1.417 4.781v7.083h1.062V4.781zM12.4 11.865V4.781h-1.067v7.083zm-3.369 3.364a3.365 3.365 0 0 0 3.369-3.364h-1.067a2.3 2.3 0 0 1-2.3 2.3zm-4.25-1.063a2.3 2.3 0 0 1-2.3-2.3H1.417a3.365 3.365 0 0 0 3.365 3.365zm3.01-7.26v4.25h1.063v-4.25zm-2.833 0v4.25h1.063v-4.25zm1.29-5.843h1.317V0H6.248zm2.052.394 1 1.494.884-.589-1-1.494zm1.438.668H4.073v1.063H9.74zm-5.225.826 1-1.494-.886-.59-1 1.494zm5.225.237h3.542V2.125H9.74zM4.073 2.125H.531v1.063h3.542zm3.492-1.062a.885.885 0 0 1 .737.394l.884-.59A1.948 1.948 0 0 0 7.565 0zM6.248 0a1.948 1.948 0 0 0-1.621.867l.884.589a.885.885 0 0 1 .737-.394z" transform="translate(173.594 691.885)" style="fill:#666f7b" data-name="그룹 79536"/>
    </g>
</svg>
