<svg xmlns="http://www.w3.org/2000/svg" width="24" height="24" viewBox="0 0 24 24">
    <defs>
        <clipPath id="66no336w0a">
            <path data-name="사각형 23552" transform="translate(210 185)" style="fill:#fff;stroke:#707070" d="M0 0h24v24H0z"/>
        </clipPath>
    </defs>
    <g data-name="마스크 그룹 6520" transform="translate(-210 -185)" style="clip-path:url(#66no336w0a)">
        <path d="m.75 18.75-.737-.14a.75.75 0 0 0 .877.877zm1.787-5.728-.53-.53zm-1.088 2.055-.737-.14zm5.029 1.886-.53-.53zm-2.055 1.088.14.737zM17.934 5.508l.53.53zm-3.941-3.942.53.53zm-1.326 1.485a.75.75 0 0 0-1.061 1.061zm2.722 4.843a.75.75 0 1 0 1.061-1.061zM17.4 4.977 5.948 16.433l1.061 1.061L18.464 6.038zM3.067 13.552 14.523 2.1l-1.061-1.064L2.007 12.491zm1.215 3.762-3.673.7.281 1.473 3.673-.7zm-2.8 1.576.7-3.673-1.47-.28-.7 3.673zm.52-6.4a4.7 4.7 0 0 0-1.29 2.447l1.474.281a3.2 3.2 0 0 1 .881-1.665zm3.941 3.941a3.2 3.2 0 0 1-1.665.881l.28 1.473a4.7 4.7 0 0 0 2.446-1.294zM17.4 2.1a2.037 2.037 0 0 1 0 2.881l1.061 1.061a3.537 3.537 0 0 0 0-5zm1.061-1.061a3.537 3.537 0 0 0-5 0L14.523 2.1a2.037 2.037 0 0 1 2.881 0zm-6.855 3.072 3.783 3.783 1.061-1.061-3.783-3.782z" transform="translate(212.25 187.25)" style="fill:#28303f" data-name="그룹 77590"/>
    </g>
</svg>
