<svg xmlns="http://www.w3.org/2000/svg" width="24" height="24" viewBox="0 0 24 24">
    <defs>
        <clipPath id="zvga1jaewa">
            <path data-name="사각형 22535" transform="translate(24 148)" style="stroke:#707070;fill:#c6c8cd" d="M0 0h24v24H0z"/>
        </clipPath>
    </defs>
    <g data-name="마스크 그룹 6182" transform="translate(-24 -148)" style="clip-path:url(#zvga1jaewa)">
        <path data-name="Vector 300" d="M2.22 5.777 1.743 5.2zm5-4.117-.477-.58zm5.06 0-.477.579zm5 4.117-.477.579zM18 8.9v7.816h1.5V8.9zM14.75 20h-10v1.5h10zM1.5 16.717V8.9H0v7.816zM2.7 6.356l5-4.117-.957-1.159-5 4.117zm9.1-4.118 5 4.117.957-1.155-5-4.117zm-4.107 0a3.225 3.225 0 0 1 4.107 0l.953-1.158a4.725 4.725 0 0 0-6.014 0zM4.75 20a3.267 3.267 0 0 1-3.25-3.283H0A4.767 4.767 0 0 0 4.75 21.5zM18 16.717A3.267 3.267 0 0 1 14.75 20v1.5a4.767 4.767 0 0 0 4.75-4.783zM19.5 8.9a4.8 4.8 0 0 0-1.743-3.7L16.8 6.355A3.3 3.3 0 0 1 18 8.9zm-18 0a3.3 3.3 0 0 1 1.2-2.545L1.743 5.2A4.8 4.8 0 0 0 0 8.9z" transform="translate(26.25 149.25)" style="fill:#c6c8cd"/>
        <path data-name="Vector 2520" d="M.75 0a.75.75 0 0 0 0 1.5zm4 1.5a.75.75 0 0 0 0-1.5zm-4 0h4V0h-4z" transform="translate(33.25 165.25)" style="fill:#c6c8cd"/>
    </g>
</svg>
