<svg xmlns="http://www.w3.org/2000/svg" xmlns:xlink="http://www.w3.org/1999/xlink" width="24" height="24" viewBox="0 0 24 24">
  <defs>
    <style>
      .cls-1 {
        fill: #c6c8cd;
        stroke: #707070;
      }

      .cls-2 {
        clip-path: url(#clip-path);
      }

      .cls-3 {
        fill: #2a323b;
        stroke: rgba(0,0,0,0);
        stroke-miterlimit: 10;
      }
    </style>
    <clipPath id="clip-path">
      <rect id="사각형_22535" data-name="사각형 22535" class="cls-1" width="24" height="24" transform="translate(24 148)"/>
    </clipPath>
  </defs>
  <g id="마스크_그룹_6182" data-name="마스크 그룹 6182" class="cls-2" transform="translate(-24 -148)">
    <g id="마스크_그룹_6475" data-name="마스크 그룹 6475" class="cls-2">
      <path id="빼기_4" data-name="빼기 4" class="cls-3" d="M-875.25,21.5h-10A4.772,4.772,0,0,1-890,16.717V8.9a4.777,4.777,0,0,1,1.743-3.7l5-4.118A4.744,4.744,0,0,1-880.25,0a4.742,4.742,0,0,1,3.007,1.08l5,4.118A4.777,4.777,0,0,1-870.5,8.9v7.817h0A4.772,4.772,0,0,1-875.25,21.5Zm-7.25-5.75a.751.751,0,0,0-.751.75.751.751,0,0,0,.751.751h4a.751.751,0,0,0,.75-.751.751.751,0,0,0-.75-.75Z" transform="translate(916.25 149.25)"/>
    </g>
  </g>
</svg>
