<svg xmlns="http://www.w3.org/2000/svg" width="17" height="17" viewBox="0 0 17 17">
    <defs>
        <clipPath id="4u1a4hfpha">
            <circle data-name="타원 2652" cx="8.5" cy="8.5" r="8.5" transform="translate(768 567)" style="stroke:#707070;fill:#c6c8cd"/>
        </clipPath>
    </defs>
    <g style="clip-path:url(#4u1a4hfpha)">
        <path d="M10.808 2.308a8.5 8.5 0 1 0 8.5 8.5 8.51 8.51 0 0 0-8.5-8.5zm3.078 10.653a.654.654 0 1 1-.924.924l-2.153-2.153-2.155 2.153a.654.654 0 0 1-.924-.924l2.153-2.153L7.73 8.654a.654.654 0 0 1 .924-.924l2.153 2.153 2.154-2.153a.654.654 0 0 1 .924.924l-2.153 2.153z" transform="translate(-2.308 -2.308)" style="fill:#c6c8cd" data-name="마스크 그룹 6305"/>
    </g>
</svg>
