<svg xmlns="http://www.w3.org/2000/svg" width="140" height="185" viewBox="0 0 140 185">
    <defs>
        <clipPath id="sv8r2y8qja">
            <path data-name="사각형 24338" transform="translate(0 .307)" style="stroke:#707070;fill:#fff" d="M0 0h140v139H0z"/>
        </clipPath>
    </defs>
    <g data-name="그룹 83746">
        <g data-name="그룹 83730">
            <g data-name="마스크 그룹 6696" transform="translate(0 -.307)" style="clip-path:url(#sv8r2y8qja)">
                <g data-name="그룹 83728">
                    <path data-name="합치기 26" d="M53.617 132.9 16.4 95.691a56.064 56.064 0 1 1 95.691-39.643 55.146 55.146 0 0 1-16.705 39.643L58.173 132.9a3.091 3.091 0 0 1-2.278.912 3.351 3.351 0 0 1-2.278-.912zM30.682 30.378a35.872 35.872 0 0 0 50.731 50.73 35.233 35.233 0 0 0 10.48-25.366 35.872 35.872 0 0 0-61.211-25.364zm21.112 57.566 1.063-8.2a24.206 24.206 0 0 1-9.113-3.19l-4.253 7.139a34.685 34.685 0 0 1-9.569-8.657l6.683-4.861a21.486 21.486 0 0 1-3.19-5.772l-7.745 3.036a33.28 33.28 0 0 1-2.127-11.7V54.68l8.2.3a24.544 24.544 0 0 1 2.278-9.417l-7.442-3.493c.608-1.215 1.215-2.43 1.974-3.646a33.7 33.7 0 0 1 5.62-6.683l5.62 6.076a22.352 22.352 0 0 1 8.354-5.012l-2.734-7.747a37.1 37.1 0 0 1 4.4-1.215 27.974 27.974 0 0 1 6.228-.608h2.126l-.455 8.2a27.113 27.113 0 0 1 9.265 2.582l3.645-7.442A32.74 32.74 0 0 1 80.8 34.631l-6.227 5.316a23.127 23.127 0 0 1 4.557 8.506l7.9-2.43a27.27 27.27 0 0 1 1.37 6.834 17.511 17.511 0 0 1 .151 2.886 22.52 22.52 0 0 1-.151 3.19l-8.2-.76a23.661 23.661 0 0 1-2.886 9.266l7.286 3.949a34.821 34.821 0 0 1-8.354 9.873l-5.164-6.531a25.947 25.947 0 0 1-8.657 4.405l2.278 7.9a32.191 32.191 0 0 1-8.657 1.215 37.482 37.482 0 0 1-4.252-.306zm-17.316-32.2a21.568 21.568 0 1 0 21.57-21.569 21.652 21.652 0 0 0-21.569 21.568z" transform="translate(13.759 2.899)" style="fill:#fff"/>
                </g>
            </g>
        </g>
        <text transform="translate(70 177)" style="font-size:34px;font-family:Pretendard-ExtraBold,Pretendard;font-weight:800;fill:#fff"><tspan x="-58.752" y="0">사장님용</tspan></text>
    </g>
</svg>
