<svg xmlns="http://www.w3.org/2000/svg" width="105" height="105" viewBox="0 0 105 105">
    <defs>
        <clipPath id="20tt6rxh9a">
            <path data-name="사각형 23932" transform="translate(139 254)" style="stroke:#707070;fill:#fff" d="M0 0h105v105H0z"/>
        </clipPath>
        <clipPath id="lqspqn950b">
            <path data-name="사각형 23930" style="fill:#3a4552;stroke:#707070" d="M0 0h45v45H0z"/>
        </clipPath>
        <clipPath id="iv7cmkd7sc">
            <path data-name="사각형 23931" transform="translate(129.521 129.521)" style="fill:#5e48e8;stroke:#707070" d="M0 0h45v45H0z"/>
        </clipPath>
    </defs>
    <g data-name="마스크 그룹 6583" transform="translate(-139 -254)" style="clip-path:url(#20tt6rxh9a)">
        <g data-name="그룹 79563">
            <g data-name="그룹 79561">
                <g data-name="마스크 그룹 6581" transform="translate(169 309)" style="clip-path:url(#lqspqn950b)">
                    <g data-name="마스크 그룹 6580" style="clip-path:url(#lqspqn950b)">
                        <g data-name="그룹 79560">
                            <path data-name="Combo shape" d="M37.5 7.5v4.219c0 3.883-2.8 7.031-6.25 7.031S25 15.6 25 11.719c0 3.883-2.8 7.031-6.25 7.031s-6.25-3.15-6.25-7.031c0 3.883-2.8 7.031-6.25 7.031S0 15.6 0 11.719V7.5A7.5 7.5 0 0 1 7.5 0H30a7.5 7.5 0 0 1 7.5 7.5zM25 18.855a8.558 8.558 0 0 0 6.25 2.708 8.436 8.436 0 0 0 4.375-1.2V30a7.5 7.5 0 0 1-7.5 7.5h-11.25v-5.625a3.75 3.75 0 0 0-7.5 0V37.5a7.5 7.5 0 0 1-7.5-7.5v-9.643a8.436 8.436 0 0 0 4.375 1.2 8.558 8.558 0 0 0 6.25-2.708 8.567 8.567 0 0 0 12.5 0zm-.625 5.52A1.875 1.875 0 0 0 22.5 26.25v1.875A1.875 1.875 0 0 0 24.375 30h3.75A1.875 1.875 0 0 0 30 28.125V26.25a1.875 1.875 0 0 0-1.875-1.875z" style="fill-rule:evenodd;fill:#3a4552" transform="translate(3.75 3.75)"/>
                        </g>
                    </g>
                </g>
            </g>
            <g data-name="마스크 그룹 6582" transform="translate(39.479 129.479)" style="clip-path:url(#iv7cmkd7sc)">
                <g data-name="그룹 79562">
                    <path data-name="합치기 19" d="m17.284 42.841-12-12a18.072 18.072 0 1 1 30.85-12.774 17.777 17.777 0 0 1-5.386 12.779l-12 12a1 1 0 0 1-.734.294 1.08 1.08 0 0 1-.73-.299zM9.89 9.792a11.563 11.563 0 0 0 16.353 16.353 11.357 11.357 0 0 0 3.378-8.177A11.563 11.563 0 0 0 9.89 9.792zm6.81 18.557.343-2.644a7.8 7.8 0 0 1-2.943-1.028l-1.371 2.3a11.181 11.181 0 0 1-3.085-2.791L11.8 22.62a6.926 6.926 0 0 1-1.028-1.86l-2.5.979a10.728 10.728 0 0 1-.686-3.77v-.343l2.644.1a7.912 7.912 0 0 1 .734-3.036l-2.4-1.126c.2-.392.392-.783.636-1.175a10.862 10.862 0 0 1 1.812-2.154l1.811 1.959a7.205 7.205 0 0 1 2.693-1.616l-.881-2.5a11.961 11.961 0 0 1 1.42-.392 9.017 9.017 0 0 1 2.008-.2h.685l-.147 2.644a8.74 8.74 0 0 1 2.987.832l1.175-2.4a10.554 10.554 0 0 1 3.28 2.595l-2.003 1.72a7.455 7.455 0 0 1 1.469 2.742l2.546-.783a8.791 8.791 0 0 1 .441 2.2 5.645 5.645 0 0 1 .049.93A7.26 7.26 0 0 1 28.5 19l-2.644-.245a7.627 7.627 0 0 1-.93 2.987l2.35 1.273a11.225 11.225 0 0 1-2.693 3.182l-1.665-2.105a8.364 8.364 0 0 1-2.791 1.42l.734 2.546a10.377 10.377 0 0 1-2.791.392 12.083 12.083 0 0 1-1.37-.101zm-5.582-10.38a6.953 6.953 0 1 0 6.953-6.952 6.98 6.98 0 0 0-6.957 6.952z" transform="translate(133.955 130.454)" style="fill:#5e48e8"/>
                </g>
            </g>
        </g>
    </g>
</svg>
