<svg xmlns="http://www.w3.org/2000/svg" width="44" height="44" viewBox="0 0 44 44">
    <defs>
        <clipPath id="l1rovvsqha">
            <path data-name="사각형 23556" style="stroke:#707070;fill:#5e48e8" d="M0 0h24v24H0z"/>
        </clipPath>
    </defs>
    <g data-name="그룹 79675" transform="translate(-15 -110)">
        <circle data-name="타원 2698" cx="22" cy="22" r="22" transform="translate(15 110)" style="fill:#f7f8f9"/>
        <g data-name="마스크 그룹 6523" transform="translate(25 120)" style="clip-path:url(#l1rovvsqha)">
            <g data-name="그룹 77602">
                <path data-name="Combo shape" d="M13.777 16H2.223C.394 16-.649 14.161.448 12.872a3.655 3.655 0 0 0 .865-1.957l.447-3.94a5.68 5.68 0 0 1 3.97-4.6v-.1a2.27 2.27 0 1 1 4.54 0v.1a5.68 5.68 0 0 1 3.97 4.6l.447 3.94a3.656 3.656 0 0 0 .866 1.957c1.096 1.289.053 3.128-1.776 3.128zm-2.805 2.071A3.182 3.182 0 0 1 8 20a3.182 3.182 0 0 1-2.972-1.928.394.394 0 0 1-.028-.149.423.423 0 0 1 .423-.423h5.153a.423.423 0 0 1 .423.423.393.393 0 0 1-.027.148z" transform="translate(4 2)" style="fill-rule:evenodd;fill:#5e48e8"/>
            </g>
        </g>
    </g>
</svg>
