<svg xmlns="http://www.w3.org/2000/svg" width="21" height="21" viewBox="0 0 21 21">
    <defs>
        <clipPath id="g7i7lr3osa">
            <path data-name="사각형 24062" transform="translate(35 171)" style="stroke:#707070;fill:#fff" d="M0 0h21v21H0z"/>
        </clipPath>
    </defs>
    <g data-name="마스크 그룹 6646" transform="translate(-35 -171)" style="clip-path:url(#g7i7lr3osa)">
        <path d="m13.116 6.76-.652.074zm.391 3.448.652-.074zm-11.7 0-.652-.074zM2.2 6.76l.652.074zm-1.149 5.16-.5-.425zm13.216 0-.5.425zM9.642 2.733h-.656a.656.656 0 0 0 .444.621zm-3.972 0 .213.621a.656.656 0 0 0 .444-.621zm5.226 13.9a.656.656 0 0 0-1.229-.461zm-5.25-.461a.656.656 0 1 0-1.229.461zM12.711 14H2.6v1.313h10.11zm-.248-7.166.391 3.448 1.3-.148-.391-3.448zM2.457 10.281l.391-3.448-1.3-.148-.391 3.448zm-.91 2.064a3.854 3.854 0 0 0 .91-2.064l-1.3-.148a2.543 2.543 0 0 1-.6 1.361zm11.307-2.064a3.855 3.855 0 0 0 .91 2.064l1-.851a2.543 2.543 0 0 1-.6-1.361zM2.6 14a1.3 1.3 0 0 1-1.166-.613.872.872 0 0 1 .112-1.042l-1-.851a2.182 2.182 0 0 0-.254 2.541A2.612 2.612 0 0 0 2.6 15.313zm10.11 1.313a2.612 2.612 0 0 0 2.307-1.278 2.182 2.182 0 0 0-.254-2.541l-1 .851a.872.872 0 0 1 .112 1.042 1.3 1.3 0 0 1-1.164.613zM10.3 2.733v-.091H8.986v.091zm3.469 3.952a5.625 5.625 0 0 0-3.914-4.573L9.43 3.354a4.316 4.316 0 0 1 3.034 3.479zM6.326 2.733v-.091H5.014v.091zm-3.478 4.1a4.316 4.316 0 0 1 3.035-3.479l-.426-1.242a5.625 5.625 0 0 0-3.913 4.574zm4.808-5.52a1.33 1.33 0 0 1 1.33 1.33H10.3A2.642 2.642 0 0 0 7.656 0zm0-1.313a2.642 2.642 0 0 0-2.642 2.642h1.312a1.33 1.33 0 0 1 1.33-1.33zm2.01 16.176a2.123 2.123 0 0 1-2.01 1.324v1.313a3.435 3.435 0 0 0 3.24-2.176zM7.656 17.5a2.123 2.123 0 0 1-2.01-1.324l-1.229.461a3.435 3.435 0 0 0 3.24 2.176z" transform="translate(37.844 172.094)" style="fill:#fff" data-name="그룹 81227"/>
    </g>
</svg>
