<svg xmlns="http://www.w3.org/2000/svg" width="24" height="24" viewBox="0 0 24 24">
    <defs>
        <clipPath id="bvfw5cx5pa">
            <path data-name="사각형 23564" transform="translate(13795 -9168)" style="stroke:#707070;fill:#2a323b" d="M0 0h24v24H0z"/>
        </clipPath>
    </defs>
    <g data-name="마스크 그룹 6530" transform="translate(-13795 9168)" style="clip-path:url(#bvfw5cx5pa)">
        <path d="m6.3 14.565-.65.375a.75.75 0 0 0 .817.356zm-3-5.2-.55-.506a.75.75 0 0 0-.1.886zm14.9-.185.65-.375zm-1.286 2.95-.167-.731zM13.912 1.75l-.649.375zm-3.2-.361.549.511zM3.549 9.8l-.65.375zm2.5 4.33.65-.375zm-2.6 1.5.65-.375zM.951 11.3l-.65.375zM1.5 9.253 1.125 8.6zm4 6.928-.375-.649zm7.511-3.223a.75.75 0 0 0-1.3.75zm1.5 4.094.649-.375zm-2.6 1.5.649-.375zm-2-4.971a.75.75 0 0 0-1.3.75zm4.053 5.52-.375-.649zm2.972-17.06a.75.75 0 0 0 1.449.388zm1.815-.978A.75.75 0 0 0 17.3.675zm1.1 3.912a.75.75 0 1 0-.388 1.449zm.978 1.815a.75.75 0 1 0 .388-1.449zm-7.567-4.665 4.292 7.434 1.3-.75-4.293-7.434zm3.489 9.275L6.132 13.834l.335 1.466 10.619-2.432zm-9.8 2.788-3-5.2-1.3.75 3 5.2zM3.849 9.88l7.415-7.98L10.165.878 2.75 8.859zm13.705-.32a1.25 1.25 0 0 1-.8 1.843l.335 1.462a2.75 2.75 0 0 0 1.768-4.056zm-2.993-8.185a2.75 2.75 0 0 0-4.4-.5l1.1 1.021a1.25 1.25 0 0 1 2 .226zM2.9 10.177l2.5 4.33 1.3-.75-2.5-4.33zm1.2 5.08-2.5-4.33-1.3.75 2.5 4.33zm-2.5-4.33A.75.75 0 0 1 1.875 9.9l-.75-1.3A2.25 2.25 0 0 0 .3 11.677zm3.525 4.6a.75.75 0 0 1-1.025-.27l-1.3.75a2.25 2.25 0 0 0 3.074.824zm.275-1.02a.75.75 0 0 1-.275 1.025l.75 1.3a2.25 2.25 0 0 0 .825-3.075zm-1.2-5.08A2.25 2.25 0 0 0 1.125 8.6l.75 1.3a.75.75 0 0 1 1.025.275zm7.513 4.281 2.147 3.719 1.3-.75-2.147-3.719zm.848 4.469-2.654-4.6-1.3.75 2.654 4.6zm1.024.274a.75.75 0 0 1-1.024-.274l-1.3.75a2.25 2.25 0 0 0 3.073.823zm.274-1.024a.75.75 0 0 1-.274 1.024l.75 1.3a2.25 2.25 0 0 0 .824-3.073zm4.521-15 .366-1.366L17.3.675l-.366 1.366zm1.081 3.994 1.366.366.388-1.449-1.365-.363z" transform="translate(13796.116 -9166.027)" style="fill:#2a323b" data-name="그룹 77667"/>
    </g>
</svg>
