<svg xmlns="http://www.w3.org/2000/svg" width="24" height="24" viewBox="0 0 24 24">
    <defs>
        <clipPath id="c0pc69mc5a">
            <path data-name="사각형 23744" transform="translate(-6201 -5115)" style="stroke:#707070;fill:#fff" d="M0 0h24v24H0z"/>
        </clipPath>
    </defs>
    <g data-name="마스크 그룹 6547" transform="translate(6201 5115)" style="clip-path:url(#c0pc69mc5a)">
        <g data-name="그룹 78122">
            <g data-name="notification - ringing">
                <path data-name="Combo shape" d="M4.02.054a.75.75 0 1 1 .557 1.393l-.167.067a5.25 5.25 0 0 0-2.891 2.843l-.077.183a.75.75 0 0 1-1.383-.58l.077-.183A6.75 6.75 0 0 1 3.853.121zM13.1.1a.75.75 0 0 0-.557 1.393l.167.067A5.25 5.25 0 0 1 15.6 4.4l.077.183A.75.75 0 1 0 17.059 4l-.077-.183A6.75 6.75 0 0 0 13.264.165zm1.239 15.956c1.828 0 2.872-1.839 1.775-3.128a3.655 3.655 0 0 1-.865-1.957L14.8 7.029a5.68 5.68 0 0 0-3.97-4.6v-.1a2.27 2.27 0 1 0-4.54 0v.1a5.68 5.68 0 0 0-3.97 4.6l-.447 3.94a3.656 3.656 0 0 1-.865 1.957c-1.1 1.289-.053 3.128 1.775 3.128zm-2.805 2.072a3.182 3.182 0 0 1-2.972 1.928 3.182 3.182 0 0 1-2.972-1.928.394.394 0 0 1-.028-.148.423.423 0 0 1 .423-.424h5.153a.423.423 0 0 1 .424.424.4.4 0 0 1-.031.146z" transform="translate(-6197.559 -5113.027)" style="fill-rule:evenodd;fill:#fff"/>
            </g>
        </g>
    </g>
</svg>
