<svg xmlns="http://www.w3.org/2000/svg" xmlns:xlink="http://www.w3.org/1999/xlink" width="95"
    height="24" viewBox="0 0 95 24">
    <defs>
        <clipPath id="clip-path">
            <rect id="사각형_24194" data-name="사각형 24194" width="95" height="24"
                transform="translate(59 94)" fill="#fff" stroke="#707070" stroke-width="1" />
        </clipPath>
        <clipPath id="clip-path-2">
            <rect id="사각형_24193" data-name="사각형 24193" width="94.308" height="24"
                transform="translate(154 373)" fill="#fff" stroke="#707070" stroke-width="1" />
        </clipPath>
        <clipPath id="clip-path-3">
            <rect id="사각형_24192" data-name="사각형 24192" width="94.249" height="22.45"
                transform="translate(0 0)" fill="#fff" stroke="#707070" stroke-width="1" />
        </clipPath>
    </defs>
    <g id="마스크_그룹_6673" data-name="마스크 그룹 6673" transform="translate(-59 -94)"
        clip-path="url(#clip-path)">
        <g id="마스크_그룹_6672" data-name="마스크 그룹 6672" transform="translate(-94.654 -279)"
            clip-path="url(#clip-path-2)">
            <g id="그룹_82420" data-name="그룹 82420" transform="translate(154 373.74)"
                clip-path="url(#clip-path-3)">
                <g id="로고3" transform="translate(2.183 1.285)">
                    <path id="합치기_21" data-name="합치기 21"
                        d="M25.927,19.866,20.365,14.3a8.38,8.38,0,1,1,14.3-5.926,8.243,8.243,0,0,1-2.5,5.926l-5.562,5.562a.462.462,0,0,1-.341.136A.5.5,0,0,1,25.927,19.866ZM22.5,4.541a5.362,5.362,0,0,0,7.583,7.583,5.266,5.266,0,0,0,1.567-3.792A5.362,5.362,0,0,0,22.5,4.541ZM86.546,19.252l-4.631-5.994H77.373v4.859a1.862,1.862,0,0,1-3.723,0V1.93A1.87,1.87,0,0,1,75.512.068H83.3a6.6,6.6,0,0,1,2.838,12.555l3.36,4.359a1.873,1.873,0,0,1-.341,2.611,1.9,1.9,0,0,1-1.135.386A1.838,1.838,0,0,1,86.546,19.252ZM77.373,9.535V9.513H83.3a2.861,2.861,0,1,0,0-5.721H77.373ZM57.894,19.979a1.875,1.875,0,0,1-1.862-1.884V1.907A1.87,1.87,0,0,1,57.894.045H68.678a1.862,1.862,0,1,1,0,3.723H59.755V8.151h7.356a1.862,1.862,0,1,1,0,3.723H59.755v4.382h8.923a1.862,1.862,0,0,1,0,3.723ZM49.63,19.3l-6.367-7.749L40.389,14.53v3.587a1.862,1.862,0,1,1-3.723,0V1.93a1.862,1.862,0,1,1,3.723,0v7.22L48.608.636A1.885,1.885,0,0,1,51.242.59a1.885,1.885,0,0,1,.045,2.634l-5.416,5.62,6.62,8.093a1.845,1.845,0,0,1-.25,2.611,1.807,1.807,0,0,1-1.181.431A1.838,1.838,0,0,1,49.63,19.3ZM0,18.095V1.907A1.87,1.87,0,0,1,1.862.045H8.536a7.061,7.061,0,0,1,0,14.122H3.723v3.928a1.862,1.862,0,1,1-3.723,0Zm3.723-7.628H8.536a3.337,3.337,0,0,0,0-6.675H3.723Zm21.932,2.679.159-1.226a3.616,3.616,0,0,1-1.362-.477l-.636,1.067a5.183,5.183,0,0,1-1.43-1.294l1-.727a3.213,3.213,0,0,1-.477-.863l-1.158.454a4.976,4.976,0,0,1-.318-1.748V8.173l1.226.045A3.667,3.667,0,0,1,23,6.811l-1.112-.522c.091-.182.182-.363.3-.545a5.03,5.03,0,0,1,.84-1l.84.908A3.338,3.338,0,0,1,25.11,4.9L24.7,3.746a5.563,5.563,0,0,1,.658-.182,4.183,4.183,0,0,1,.931-.091h.318L26.54,4.7a4.054,4.054,0,0,1,1.385.386l.545-1.112a4.893,4.893,0,0,1,1.521,1.2l-.931.795a3.453,3.453,0,0,1,.681,1.271l1.181-.363a4.081,4.081,0,0,1,.2,1.022,2.612,2.612,0,0,1,.023.431,3.359,3.359,0,0,1-.023.477L29.9,8.7a3.536,3.536,0,0,1-.431,1.385l1.09.59a5.209,5.209,0,0,1-1.249,1.476l-.772-.976a3.877,3.877,0,0,1-1.294.658l.341,1.181a4.816,4.816,0,0,1-1.294.182A5.574,5.574,0,0,1,25.655,13.145ZM23.067,8.332a3.224,3.224,0,1,0,3.224-3.224A3.236,3.236,0,0,0,23.067,8.332Z"
                        transform="translate(0 0)" fill="#fff" />
                </g>
            </g>
        </g>
    </g>
</svg>
