<svg xmlns="http://www.w3.org/2000/svg" xmlns:xlink="http://www.w3.org/1999/xlink" width="105"
    height="105" viewBox="0 0 105 105">
    <defs>
        <clipPath id="clip-path">
            <rect id="사각형_22700" data-name="사각형 22700" width="44" height="44"
                transform="translate(285 228)" fill="#1b20f0" stroke="#707070" stroke-width="1" />
        </clipPath>
    </defs>
    <g id="그룹_81521" data-name="그룹 81521" transform="translate(-267 -507)">
        <g id="마스크_그룹_6207" data-name="마스크 그룹 6207" transform="translate(13 310)"
            clip-path="url(#clip-path)">
            <g id="기타펍" transform="translate(285 229.851)">
                <path id="패스_178" data-name="패스 178"
                    d="M9.325,15.642,8.306,13.183h0a12.861,12.861,0,0,0-4.072,2.735l1.9,1.855A9.82,9.82,0,0,1,9.325,15.642Z"
                    transform="translate(1.003 1.457)" fill="#fff" />
                <path id="패스_179" data-name="패스 179"
                    d="M21.879,22.393h-2.64a8.723,8.723,0,0,1-.785,3.753l2.459,1.018A11.911,11.911,0,0,0,21.879,22.393Z"
                    transform="translate(4.659 3.826)" fill="#fff" />
                <path id="패스_180" data-name="패스 180"
                    d="M16.04,13.424a11.739,11.739,0,0,0-4.771-.975v2.64h0a9.967,9.967,0,0,1,3.753.742Z"
                    transform="translate(2.811 1.269)" fill="#fff" />
                <path id="패스_181" data-name="패스 181"
                    d="M14.254,30.047l1.018,2.459a13.638,13.638,0,0,0,4.072-2.683l-1.9-1.9A9.935,9.935,0,0,1,14.254,30.047Z"
                    transform="translate(3.579 5.248)" fill="#fff" />
                <path id="패스_182" data-name="패스 182"
                    d="M4.009,23.335a9.967,9.967,0,0,1,.742-3.753L2.293,18.564a12.7,12.7,0,0,0-.975,4.771Z"
                    transform="translate(0.253 2.841)" fill="#fff" />
                <path id="패스_183" data-name="패스 183"
                    d="M7.474,32.035a11.918,11.918,0,0,0,4.771.975V30.327a9.967,9.967,0,0,1-3.753-.742Z"
                    transform="translate(1.835 5.675)" fill="#fff" />
                <path id="패스_184" data-name="패스 184"
                    d="M21.381,19.388A11.867,11.867,0,0,0,18.7,15.359l-1.9,1.855a9.959,9.959,0,0,1,2.131,3.192Z"
                    transform="translate(4.234 2.017)" fill="#fff" />
                <path id="패스_185" data-name="패스 185"
                    d="M2.093,26.362a11.558,11.558,0,0,0,2.683,4.072l1.9-1.9a10.719,10.719,0,0,1-2.131-3.192Z"
                    transform="translate(0.452 4.585)" fill="#fff" />
                <path id="패스_186" data-name="패스 186"
                    d="M35.7,28.474H23.841A16.363,16.363,0,0,1,17.5,34.91H35.7a2.079,2.079,0,0,0,2.088-2.088V30.553A2.118,2.118,0,0,0,35.7,28.474Z"
                    transform="translate(4.414 5.389)" fill="#c6c8cd" />
                <path id="패스_187" data-name="패스 187"
                    d="M36.023,21.734H24.255v.785a15.907,15.907,0,0,1-1.018,5.608H36.023a2.079,2.079,0,0,0,2.088-2.088V23.77A2.062,2.062,0,0,0,36.023,21.734Z"
                    transform="translate(5.889 3.656)" fill="#c6c8cd" />
                <path id="패스_188" data-name="패스 188"
                    d="M34.606,21.426a2.079,2.079,0,0,0,2.088-2.088V17.069a2.079,2.079,0,0,0-2.088-2.088H21.734a15.789,15.789,0,0,1,2.683,6.436Z"
                    transform="translate(5.503 1.92)" fill="#c6c8cd" />
                <path id="패스_189" data-name="패스 189"
                    d="M38.1,8.283H17.255a2.079,2.079,0,0,0-2.088,2.088V10.7A15.606,15.606,0,0,1,21.7,14.728H38.09a2.079,2.079,0,0,0,2.088-2.088V10.371A2.066,2.066,0,0,0,38.1,8.283Z"
                    transform="translate(3.814 0.197)" fill="#c6c8cd" />
                <path id="패스_190" data-name="패스 190"
                    d="M15.82,7.982H36.664a2.079,2.079,0,0,0,2.088-2.088V3.625a2.079,2.079,0,0,0-2.088-2.088H15.82a2.079,2.079,0,0,0-2.088,2.088V5.894A2.141,2.141,0,0,0,15.82,7.982Z"
                    transform="translate(3.445 -1.537)" fill="#c6c8cd" />
                <path id="패스_191" data-name="패스 191" d="M2.093,18.564Z"
                    transform="translate(0.452 2.841)" fill="#1b20f0" />
                <path id="패스_192" data-name="패스 192"
                    d="M28.229,25.273a14.08,14.08,0,1,0-14.08,14.08A14.073,14.073,0,0,0,28.229,25.273ZM22.992,16.43a11.743,11.743,0,0,1,2.683,4.029l-2.459,1.018a9.866,9.866,0,0,0-2.131-3.192ZM9.378,13.7h0L10.4,16.154A9.866,9.866,0,0,0,7.2,18.285l-1.9-1.855A12.861,12.861,0,0,1,9.378,13.7ZM2.614,20.459h0l2.459,1.018a9.967,9.967,0,0,0-.742,3.753H1.647a12.867,12.867,0,0,1,.966-4.771ZM5.305,34.073A11.518,11.518,0,0,1,2.622,30l2.45-1.018A10.61,10.61,0,0,0,7.2,32.175Zm8.843,3.658a11.918,11.918,0,0,1-4.771-.975L10.4,34.3a9.967,9.967,0,0,0,3.753.742Zm0-22.319v-2.64a11.739,11.739,0,0,1,4.771.975L17.9,16.154a9.967,9.967,0,0,0-3.753-.742Zm4.771,21.4L17.9,34.349a9.866,9.866,0,0,0,3.192-2.131l1.9,1.9A13.5,13.5,0,0,1,18.92,36.808Zm5.047-11.535h2.64a11.918,11.918,0,0,1-.975,4.771l-2.459-1.018A8.58,8.58,0,0,0,23.967,25.273Z"
                    transform="translate(-0.069 0.946)" fill="#c6c8cd" />
            </g>
        </g>
    </g>
</svg>