<svg xmlns="http://www.w3.org/2000/svg" width="105" height="105" viewBox="0 0 105 105">
    <defs>
        <clipPath id="b82e4gm5ca">
            <path data-name="사각형 22699" transform="translate(170 228)" style="fill:#ebb553;stroke:#707070" d="M0 0h44v44H0z"/>
        </clipPath>
    </defs>
    <g data-name="그룹 81520">
        <g style="fill:#eeebf7;stroke:#5f43b9;stroke-width:2px">
            <rect width="105" height="105" rx="12" style="stroke:none"/>
            <rect x="1" y="1" width="103" height="103" rx="11" style="fill:none"/>
        </g>
        <g data-name="마스크 그룹 6206" transform="translate(-139 -197)" style="clip-path:url(#b82e4gm5ca)">
            <g data-name="링게임">
                <g data-name="그룹 64792">
                    <g data-name="그룹 64781">
                        <path data-name="패스 166" d="M11.639 32.683a19.063 19.063 0 0 0 7.454 1.484V30a15.484 15.484 0 0 1-5.884-1.156z" transform="translate(172.907 235.331)" style="fill:#fff"/>
                    </g>
                    <g data-name="그룹 64782">
                        <path data-name="패스 167" d="M3.239 23.819a18.871 18.871 0 0 0 4.21 6.35l2.968-2.916a15.423 15.423 0 0 1-3.339-5z" transform="translate(170.747 233.635)" style="fill:#fff"/>
                    </g>
                    <g data-name="그룹 64783">
                        <path data-name="패스 168" d="m14.517 7.08-1.579-3.848A19.666 19.666 0 0 0 6.554 7.5l2.968 2.916a15.811 15.811 0 0 1 4.995-3.336z" transform="translate(171.599 228.745)" style="fill:#fff"/>
                    </g>
                    <g data-name="그룹 64784">
                        <path data-name="패스 169" d="M33.074 20.2A12.872 12.872 0 1 0 20.2 33.074 12.906 12.906 0 0 0 33.074 20.2zm-5.789 3.848a4.473 4.473 0 0 1-5.6.647l1.622 3.658a.5.5 0 0 1-.466.7H17.6a.5.5 0 0 1-.466-.7l1.622-3.615a4.239 4.239 0 0 1-2.364.7 4.5 4.5 0 0 1-3.106-1.294 4.379 4.379 0 0 1 0-6.2l6.393-6.393a.729.729 0 0 1 1.018 0l6.436 6.3a4.413 4.413 0 0 1 .152 6.198z" transform="translate(171.799 229.799)" style="fill:#5f43b9"/>
                    </g>
                    <g data-name="그룹 64785">
                        <path data-name="패스 170" d="m7.382 13.211-3.848-1.579A19.131 19.131 0 0 0 2.059 19.1h4.167a15.484 15.484 0 0 1 1.156-5.889z" transform="translate(170.443 230.905)" style="fill:#fff"/>
                    </g>
                    <g data-name="그룹 64786">
                        <path data-name="패스 171" d="M25.023 3.543a19.7 19.7 0 0 0-7.454-1.484v4.167a15.484 15.484 0 0 1 5.884 1.156z" transform="translate(174.431 228.443)" style="fill:#fff"/>
                    </g>
                    <g data-name="그룹 64787">
                        <path data-name="패스 172" d="M26.188 9.461a15.423 15.423 0 0 1 3.339 5l3.848-1.579a19.2 19.2 0 0 0-4.219-6.3z" transform="translate(176.648 229.608)" style="fill:#fff"/>
                    </g>
                    <g data-name="그룹 64788">
                        <path data-name="패스 173" d="m22.249 29.525 1.579 3.848a18.432 18.432 0 0 0 6.341-4.262L27.2 26.2a15.271 15.271 0 0 1-4.951 3.325z" transform="translate(175.635 234.65)" style="fill:#fff"/>
                    </g>
                    <g data-name="그룹 64789">
                        <path data-name="패스 174" d="m28.878 23.451 3.848 1.579a19.869 19.869 0 0 0 1.484-7.454h-4.167a15.645 15.645 0 0 1-1.165 5.875z" transform="translate(177.34 232.434)" style="fill:#fff"/>
                    </g>
                    <g data-name="그룹 64790">
                        <path data-name="패스 175" d="M22.069.069a22 22 0 1 0 22 22 22.015 22.015 0 0 0-22-22zm0 2.5a19.7 19.7 0 0 1 7.454 1.484L27.944 7.9a15.451 15.451 0 0 0-5.884-1.154zm-7.454 1.486L16.193 7.9a15.7 15.7 0 0 0-5 3.339L8.222 8.316a19.45 19.45 0 0 1 6.393-4.261zm-10.56 10.56L7.9 16.193a15.451 15.451 0 0 0-1.156 5.884H2.571a18.919 18.919 0 0 1 1.484-7.462zm4.21 21.258a19.073 19.073 0 0 1-4.219-6.341l3.848-1.579a15.243 15.243 0 0 0 3.339 5zm13.8 5.694a19.063 19.063 0 0 1-7.454-1.484l1.579-3.848a15.451 15.451 0 0 0 5.884 1.156zm0-6.617a12.872 12.872 0 1 1 12.876-12.873 12.872 12.872 0 0 1-12.872 12.872zm7.454 5.133-1.579-3.848A14.938 14.938 0 0 0 32.9 32.9l2.968 2.916a18.216 18.216 0 0 1-6.345 4.267zm10.612-10.56-3.848-1.579a15.451 15.451 0 0 0 1.156-5.884h4.171a19.875 19.875 0 0 1-1.475 7.463zm-3.887-13.381a15.243 15.243 0 0 0-3.339-5l2.968-2.873a19.338 19.338 0 0 1 4.219 6.3z" transform="translate(169.931 227.931)" style="fill:#5f43b9"/>
                    </g>
                    <g data-name="그룹 64791">
                        <path data-name="패스 176" d="M19.753 10.721a.729.729 0 0 0-1.018 0l-6.393 6.393a4.379 4.379 0 0 0 0 6.2 4.459 4.459 0 0 0 3.106 1.294 4.26 4.26 0 0 0 2.364-.7l-1.622 3.619a.5.5 0 0 0 .466.7h5.237a.5.5 0 0 0 .466-.7l-1.622-3.658a4.473 4.473 0 0 0 5.6-.647 4.429 4.429 0 0 0-.138-6.2z" transform="translate(172.756 230.617)" style="fill:#fff"/>
                    </g>
                </g>
                <g data-name="그룹 64793" style="opacity:.9">
                    <path data-name="패스 177" d="M20.29 33.6a13.308 13.308 0 1 1 13.3-13.312A13.321 13.321 0 0 1 20.29 33.6zm0-25.753A12.441 12.441 0 1 0 32.731 20.29 12.456 12.456 0 0 0 20.29 7.849z" transform="translate(171.71 229.71)" style="fill:#fff"/>
                </g>
            </g>
        </g>
    </g>
</svg>
