<svg xmlns="http://www.w3.org/2000/svg" xmlns:xlink="http://www.w3.org/1999/xlink" width="105"
    height="105" viewBox="0 0 105 105">
    <defs>
        <clipPath id="clip-path">
            <rect id="사각형_22698" data-name="사각형 22698" width="44" height="44"
                transform="translate(55 228)" fill="#5dac62" stroke="#707070" stroke-width="1" />
        </clipPath>
    </defs>
    <g id="그룹_81519" data-name="그룹 81519" transform="translate(-50 -507)">
        <g id="마스크_그룹_6205" data-name="마스크 그룹 6205" transform="translate(26 310)"
            clip-path="url(#clip-path)">
            <g id="토너먼트" transform="translate(55 228)">
                <g id="그룹_64779" data-name="그룹 64779" transform="translate(0 0)">
                    <g id="그룹_64768" data-name="그룹 64768" transform="translate(3.986 27.884)">
                        <path id="패스_154" data-name="패스 154"
                            d="M3.239,23.819a18.871,18.871,0,0,0,4.21,6.35l2.968-2.916a15.423,15.423,0,0,1-3.339-5Z"
                            transform="translate(-3.239 -22.249)" fill="#fff" />
                    </g>
                    <g id="그룹_64769" data-name="그룹 64769" transform="translate(14.546 36.175)">
                        <path id="패스_155" data-name="패스 155"
                            d="M11.639,32.683a19.063,19.063,0,0,0,7.454,1.484V30a15.484,15.484,0,0,1-5.884-1.156Z"
                            transform="translate(-11.639 -28.844)" fill="#fff" />
                    </g>
                    <g id="그룹_64770" data-name="그룹 64770" transform="translate(22 2.502)">
                        <path id="패스_156" data-name="패스 156"
                            d="M25.023,3.543a19.7,19.7,0,0,0-7.454-1.484V6.226a15.484,15.484,0,0,1,5.884,1.156Z"
                            transform="translate(-17.569 -2.059)" fill="#fff" />
                    </g>
                    <g id="그룹_64771" data-name="그룹 64771" transform="translate(2.502 14.537)">
                        <path id="패스_157" data-name="패스 157"
                            d="M7.382,13.211,3.534,11.632h0A19.131,19.131,0,0,0,2.059,19.1H6.226A15.484,15.484,0,0,1,7.382,13.211Z"
                            transform="translate(-2.059 -11.632)" fill="#fff" />
                    </g>
                    <g id="그룹_64772" data-name="그룹 64772" transform="translate(8.153 3.977)">
                        <path id="패스_158" data-name="패스 158"
                            d="M14.517,7.08,12.938,3.232h0A19.666,19.666,0,0,0,6.554,7.5l2.968,2.916A15.811,15.811,0,0,1,14.517,7.08Z"
                            transform="translate(-6.554 -3.232)" fill="#fff" />
                    </g>
                    <g id="그룹_64773" data-name="그룹 64773" transform="translate(27.884 32.845)">
                        <path id="패스_159" data-name="패스 159"
                            d="M22.249,29.525l1.579,3.848h0a18.432,18.432,0,0,0,6.341-4.262L27.2,26.2A15.271,15.271,0,0,1,22.249,29.525Z"
                            transform="translate(-22.249 -26.195)" fill="#fff" />
                    </g>
                    <g id="그룹_64774" data-name="그룹 64774" transform="translate(36.218 22.009)">
                        <path id="패스_160" data-name="패스 160"
                            d="M28.878,23.451l3.848,1.579a19.869,19.869,0,0,0,1.484-7.454H30.043A15.645,15.645,0,0,1,28.878,23.451Z"
                            transform="translate(-28.878 -17.575)" fill="#fff" />
                    </g>
                    <g id="그룹_64775" data-name="그룹 64775" transform="translate(32.836 8.196)">
                        <path id="패스_161" data-name="패스 161"
                            d="M26.188,9.461a15.423,15.423,0,0,1,3.339,5l3.848-1.579a19.2,19.2,0,0,0-4.219-6.3Z"
                            transform="translate(-26.188 -6.588)" fill="#fff" />
                    </g>
                    <g id="그룹_64776" data-name="그룹 64776" transform="translate(9.128 9.128)">
                        <path id="패스_162" data-name="패스 162"
                            d="M33.074,20.2A12.872,12.872,0,1,0,20.2,33.074,12.906,12.906,0,0,0,33.074,20.2Zm-4.719-1.993-3.106,3.339a.711.711,0,0,0-.181.6l.552,4.538a.72.72,0,0,1-1.018.742L20.478,25.49a.676.676,0,0,0-.6,0L15.75,27.431a.728.728,0,0,1-1.018-.742l.509-4.538a.7.7,0,0,0-.181-.6l-3.106-3.339A.714.714,0,0,1,12.325,17l4.495-.88a.7.7,0,0,0,.509-.371l2.226-3.986a.7.7,0,0,1,1.251,0l2.226,3.986a.821.821,0,0,0,.509.371l4.495.88h0A.692.692,0,0,1,28.355,18.209Z"
                            transform="translate(-7.329 -7.329)" fill="#709ced" />
                    </g>
                    <g id="그룹_64777" data-name="그룹 64777">
                        <path id="패스_163" data-name="패스 163"
                            d="M22.069.069a22,22,0,1,0,22,22A22.015,22.015,0,0,0,22.069.069Zm0,2.5a19.7,19.7,0,0,1,7.454,1.484L27.944,7.9A15.451,15.451,0,0,0,22.06,6.746ZM14.615,4.055h0L16.193,7.9a15.7,15.7,0,0,0-5,3.339L8.222,8.316A19.45,19.45,0,0,1,14.615,4.055ZM4.055,14.615h0L7.9,16.193a15.451,15.451,0,0,0-1.156,5.884H2.571A18.919,18.919,0,0,1,4.055,14.615Zm4.21,21.258a19.073,19.073,0,0,1-4.219-6.341l3.848-1.579a15.243,15.243,0,0,0,3.339,5Zm13.8,5.694a19.063,19.063,0,0,1-7.454-1.484l1.579-3.848a15.451,15.451,0,0,0,5.884,1.156Zm0-6.617A12.872,12.872,0,1,1,34.941,22.077,12.872,12.872,0,0,1,22.069,34.949Zm7.454,5.133h0l-1.579-3.848A14.938,14.938,0,0,0,32.9,32.9l2.968,2.916A18.216,18.216,0,0,1,29.523,40.083Zm10.612-10.56-3.848-1.579a15.451,15.451,0,0,0,1.156-5.884H41.61A19.875,19.875,0,0,1,40.135,29.523ZM36.244,16.142a15.243,15.243,0,0,0-3.339-5l2.968-2.873a19.338,19.338,0,0,1,4.219,6.3Z"
                            transform="translate(-0.069 -0.069)" fill="#709ced" />
                    </g>
                    <g id="그룹_64778" data-name="그룹 64778" transform="translate(13.541 13.189)">
                        <path id="패스_164" data-name="패스 164"
                            d="M27.124,16.179h0l-4.495-.88a.791.791,0,0,1-.509-.371L19.9,10.942a.7.7,0,0,0-1.251,0l-2.226,3.986a.721.721,0,0,1-.509.371l-4.495.88a.713.713,0,0,0-.371,1.208l3.106,3.339a.672.672,0,0,1,.181.6l-.509,4.538a.731.731,0,0,0,1.018.742l4.124-1.941a.676.676,0,0,1,.6,0L23.7,26.609a.717.717,0,0,0,1.018-.742l-.552-4.538a.747.747,0,0,1,.181-.6l3.106-3.339A.69.69,0,0,0,27.124,16.179Z"
                            transform="translate(-10.84 -10.56)" fill="#fff" />
                    </g>
                </g>
                <g id="그룹_64780" data-name="그룹 64780" transform="translate(8.696 8.696)">
                    <path id="패스_165" data-name="패스 165"
                        d="M20.29,33.6a13.308,13.308,0,1,1,13.3-13.312A13.321,13.321,0,0,1,20.29,33.6Zm0-25.753A12.441,12.441,0,1,0,32.731,20.29,12.456,12.456,0,0,0,20.29,7.849Z"
                        transform="translate(-6.986 -6.986)" fill="#fff" />
                </g>
            </g>
        </g>
    </g>
</svg>