<svg xmlns="http://www.w3.org/2000/svg" width="105" height="105" viewBox="0 0 105 105">
    <defs>
        <clipPath id="dx0g2i3b3a">
            <path data-name="사각형 22698" transform="translate(55 228)" style="fill:#5dac62;stroke:#707070" d="M0 0h44v44H0z"/>
        </clipPath>
    </defs>
    <g data-name="그룹 81519" transform="translate(-50 -507)">
        <rect width="105" height="105" rx="12" transform="translate(50 507)" style="fill:#eff4fd"/>
        <g data-name="마스크 그룹 6205" transform="translate(26 310)" style="clip-path:url(#dx0g2i3b3a)">
            <g data-name="그룹 64779">
                <g data-name="그룹 64768">
                    <path data-name="패스 154" d="M3.239 23.819a18.871 18.871 0 0 0 4.21 6.35l2.968-2.916a15.423 15.423 0 0 1-3.339-5z" transform="translate(55.747 233.635)" style="fill:#fff"/>
                </g>
                <g data-name="그룹 64769">
                    <path data-name="패스 155" d="M11.639 32.683a19.063 19.063 0 0 0 7.454 1.484V30a15.484 15.484 0 0 1-5.884-1.156z" transform="translate(57.907 235.331)" style="fill:#fff"/>
                </g>
                <g data-name="그룹 64770">
                    <path data-name="패스 156" d="M25.023 3.543a19.7 19.7 0 0 0-7.454-1.484v4.167a15.484 15.484 0 0 1 5.884 1.156z" transform="translate(59.431 228.443)" style="fill:#fff"/>
                </g>
                <g data-name="그룹 64771">
                    <path data-name="패스 157" d="m7.382 13.211-3.848-1.579A19.131 19.131 0 0 0 2.059 19.1h4.167a15.484 15.484 0 0 1 1.156-5.889z" transform="translate(55.443 230.905)" style="fill:#fff"/>
                </g>
                <g data-name="그룹 64772">
                    <path data-name="패스 158" d="m14.517 7.08-1.579-3.848A19.666 19.666 0 0 0 6.554 7.5l2.968 2.916a15.811 15.811 0 0 1 4.995-3.336z" transform="translate(56.599 228.745)" style="fill:#fff"/>
                </g>
                <g data-name="그룹 64773">
                    <path data-name="패스 159" d="m22.249 29.525 1.579 3.848a18.432 18.432 0 0 0 6.341-4.262L27.2 26.2a15.271 15.271 0 0 1-4.951 3.325z" transform="translate(60.635 234.65)" style="fill:#fff"/>
                </g>
                <g data-name="그룹 64774">
                    <path data-name="패스 160" d="m28.878 23.451 3.848 1.579a19.869 19.869 0 0 0 1.484-7.454h-4.167a15.645 15.645 0 0 1-1.165 5.875z" transform="translate(62.34 232.434)" style="fill:#fff"/>
                </g>
                <g data-name="그룹 64775">
                    <path data-name="패스 161" d="M26.188 9.461a15.423 15.423 0 0 1 3.339 5l3.848-1.579a19.2 19.2 0 0 0-4.219-6.3z" transform="translate(61.648 229.608)" style="fill:#fff"/>
                </g>
                <g data-name="그룹 64776">
                    <path data-name="패스 162" d="M33.074 20.2A12.872 12.872 0 1 0 20.2 33.074 12.906 12.906 0 0 0 33.074 20.2zm-4.719-1.993-3.106 3.339a.711.711 0 0 0-.181.6l.552 4.538a.72.72 0 0 1-1.018.742l-4.124-1.936a.676.676 0 0 0-.6 0l-4.128 1.941a.728.728 0 0 1-1.018-.742l.509-4.538a.7.7 0 0 0-.181-.6l-3.106-3.339A.714.714 0 0 1 12.325 17l4.495-.88a.7.7 0 0 0 .509-.371l2.226-3.986a.7.7 0 0 1 1.251 0l2.226 3.986a.821.821 0 0 0 .509.371l4.495.88a.692.692 0 0 1 .319 1.209z" transform="translate(56.799 229.799)" style="fill:#709ced"/>
                </g>
                <g data-name="그룹 64777">
                    <path data-name="패스 163" d="M22.069.069a22 22 0 1 0 22 22 22.015 22.015 0 0 0-22-22zm0 2.5a19.7 19.7 0 0 1 7.454 1.484L27.944 7.9a15.451 15.451 0 0 0-5.884-1.154zm-7.454 1.486L16.193 7.9a15.7 15.7 0 0 0-5 3.339L8.222 8.316a19.45 19.45 0 0 1 6.393-4.261zm-10.56 10.56L7.9 16.193a15.451 15.451 0 0 0-1.156 5.884H2.571a18.919 18.919 0 0 1 1.484-7.462zm4.21 21.258a19.073 19.073 0 0 1-4.219-6.341l3.848-1.579a15.243 15.243 0 0 0 3.339 5zm13.8 5.694a19.063 19.063 0 0 1-7.454-1.484l1.579-3.848a15.451 15.451 0 0 0 5.884 1.156zm0-6.617a12.872 12.872 0 1 1 12.876-12.873 12.872 12.872 0 0 1-12.872 12.872zm7.454 5.133-1.579-3.848A14.938 14.938 0 0 0 32.9 32.9l2.968 2.916a18.216 18.216 0 0 1-6.345 4.267zm10.612-10.56-3.848-1.579a15.451 15.451 0 0 0 1.156-5.884h4.171a19.875 19.875 0 0 1-1.475 7.463zm-3.887-13.381a15.243 15.243 0 0 0-3.339-5l2.968-2.873a19.338 19.338 0 0 1 4.219 6.3z" transform="translate(54.931 227.931)" style="fill:#709ced"/>
                </g>
                <g data-name="그룹 64778">
                    <path data-name="패스 164" d="m27.124 16.179-4.495-.88a.791.791 0 0 1-.509-.371l-2.22-3.986a.7.7 0 0 0-1.251 0l-2.226 3.986a.721.721 0 0 1-.509.371l-4.495.88a.713.713 0 0 0-.371 1.208l3.106 3.339a.672.672 0 0 1 .181.6l-.509 4.538a.731.731 0 0 0 1.018.742l4.124-1.941a.676.676 0 0 1 .6 0l4.132 1.944a.717.717 0 0 0 1.018-.742l-.552-4.538a.747.747 0 0 1 .181-.6l3.106-3.339a.69.69 0 0 0-.329-1.211z" transform="translate(57.701 230.629)" style="fill:#fff"/>
                </g>
            </g>
            <g data-name="그룹 64780">
                <path data-name="패스 165" d="M20.29 33.6a13.308 13.308 0 1 1 13.3-13.312A13.321 13.321 0 0 1 20.29 33.6zm0-25.753A12.441 12.441 0 1 0 32.731 20.29 12.456 12.456 0 0 0 20.29 7.849z" transform="translate(56.71 229.71)" style="fill:#fff"/>
            </g>
        </g>
    </g>
</svg>
