<svg xmlns="http://www.w3.org/2000/svg" width="105" height="105" viewBox="0 0 105 105">
    <defs>
        <clipPath id="wan3uvdmaa">
            <path data-name="사각형 22700" transform="translate(285 228)" style="stroke:#707070;fill:#1b20f0" d="M0 0h44v44H0z"/>
        </clipPath>
    </defs>
    <g data-name="그룹 81521" transform="translate(-267 -507)">
        <rect width="105" height="105" rx="12" transform="translate(267 507)" style="fill:#f7f8f9"/>
        <g data-name="마스크 그룹 6207" transform="translate(13 310)" style="clip-path:url(#wan3uvdmaa)">
            <path data-name="패스 178" d="m9.325 15.642-1.019-2.459a12.861 12.861 0 0 0-4.072 2.735l1.9 1.855a9.82 9.82 0 0 1 3.191-2.131z" transform="translate(286.003 231.308)" style="fill:#fff"/>
            <path data-name="패스 179" d="M21.879 22.393h-2.64a8.723 8.723 0 0 1-.785 3.753l2.459 1.018a11.911 11.911 0 0 0 .966-4.771z" transform="translate(289.659 233.677)" style="fill:#fff"/>
            <path data-name="패스 180" d="M16.04 13.424a11.739 11.739 0 0 0-4.771-.975v2.64a9.967 9.967 0 0 1 3.753.742z" transform="translate(287.811 231.12)" style="fill:#fff"/>
            <path data-name="패스 181" d="m14.254 30.047 1.018 2.459a13.638 13.638 0 0 0 4.072-2.683l-1.9-1.9a9.935 9.935 0 0 1-3.19 2.124z" transform="translate(288.579 235.099)" style="fill:#fff"/>
            <path data-name="패스 182" d="M4.009 23.335a9.967 9.967 0 0 1 .742-3.753l-2.458-1.018a12.7 12.7 0 0 0-.975 4.771z" transform="translate(285.253 232.692)" style="fill:#fff"/>
            <path data-name="패스 183" d="M7.474 32.035a11.918 11.918 0 0 0 4.771.975v-2.683a9.967 9.967 0 0 1-3.753-.742z" transform="translate(286.835 235.526)" style="fill:#fff"/>
            <path data-name="패스 184" d="M21.381 19.388a11.867 11.867 0 0 0-2.681-4.029l-1.9 1.855a9.959 9.959 0 0 1 2.131 3.192z" transform="translate(289.234 231.868)" style="fill:#fff"/>
            <path data-name="패스 185" d="M2.093 26.362a11.558 11.558 0 0 0 2.683 4.072l1.9-1.9a10.719 10.719 0 0 1-2.131-3.192z" transform="translate(285.452 234.436)" style="fill:#fff"/>
            <path data-name="패스 186" d="M35.7 28.474H23.841A16.363 16.363 0 0 1 17.5 34.91h18.2a2.079 2.079 0 0 0 2.088-2.088v-2.269a2.118 2.118 0 0 0-2.088-2.079z" transform="translate(289.414 235.24)" style="fill:#c6c8cd"/>
            <path data-name="패스 187" d="M36.023 21.734H24.255v.785a15.907 15.907 0 0 1-1.018 5.608h12.786a2.079 2.079 0 0 0 2.088-2.088V23.77a2.062 2.062 0 0 0-2.088-2.036z" transform="translate(290.889 233.507)" style="fill:#c6c8cd"/>
            <path data-name="패스 188" d="M34.606 21.426a2.079 2.079 0 0 0 2.088-2.088v-2.269a2.079 2.079 0 0 0-2.088-2.088H21.734a15.789 15.789 0 0 1 2.683 6.436z" transform="translate(290.503 231.771)" style="fill:#c6c8cd"/>
            <path data-name="패스 189" d="M38.1 8.283H17.255a2.079 2.079 0 0 0-2.088 2.088v.329a15.606 15.606 0 0 1 6.533 4.028h16.39a2.079 2.079 0 0 0 2.088-2.088v-2.269A2.066 2.066 0 0 0 38.1 8.283z" transform="translate(288.814 230.048)" style="fill:#c6c8cd"/>
            <path data-name="패스 190" d="M15.82 7.982h20.844a2.079 2.079 0 0 0 2.088-2.088V3.625a2.079 2.079 0 0 0-2.088-2.088H15.82a2.079 2.079 0 0 0-2.088 2.088v2.269a2.141 2.141 0 0 0 2.088 2.088z" transform="translate(288.445 228.314)" style="fill:#c6c8cd"/>
            <path data-name="패스 191" d="M2.093 18.564z" transform="translate(285.452 232.692)" style="fill:#1b20f0"/>
            <path data-name="패스 192" d="M28.229 25.273a14.08 14.08 0 1 0-14.08 14.08 14.073 14.073 0 0 0 14.08-14.08zm-5.237-8.843a11.743 11.743 0 0 1 2.683 4.029l-2.459 1.018a9.866 9.866 0 0 0-2.131-3.192zM9.378 13.7l1.022 2.454a9.866 9.866 0 0 0-3.2 2.131L5.3 16.43a12.861 12.861 0 0 1 4.078-2.73zm-6.764 6.759 2.459 1.018a9.967 9.967 0 0 0-.742 3.753H1.647a12.867 12.867 0 0 1 .966-4.771zm2.691 13.614A11.518 11.518 0 0 1 2.622 30l2.45-1.018A10.61 10.61 0 0 0 7.2 32.175zm8.843 3.658a11.918 11.918 0 0 1-4.771-.975L10.4 34.3a9.967 9.967 0 0 0 3.753.742zm0-22.319v-2.64a11.739 11.739 0 0 1 4.771.975L17.9 16.154a9.967 9.967 0 0 0-3.753-.742zm4.771 21.4L17.9 34.349a9.866 9.866 0 0 0 3.192-2.131l1.9 1.9a13.5 13.5 0 0 1-4.072 2.69zm5.047-11.535h2.64a11.918 11.918 0 0 1-.975 4.771l-2.459-1.018a8.58 8.58 0 0 0 .795-3.757z" transform="translate(284.931 230.797)" style="fill:#c6c8cd"/>
        </g>
    </g>
</svg>
