<svg xmlns="http://www.w3.org/2000/svg" xmlns:xlink="http://www.w3.org/1999/xlink" width="105"
    height="105" viewBox="0 0 105 105">
    <defs>
        <clipPath id="clip-path">
            <rect id="사각형_22699" data-name="사각형 22699" width="44" height="44"
                transform="translate(170 228)" fill="#ebb553" stroke="#707070" stroke-width="1" />
        </clipPath>
    </defs>
    <g id="그룹_81520" data-name="그룹 81520" transform="translate(-159 -507)">
        <g id="마스크_그룹_6206" data-name="마스크 그룹 6206" transform="translate(20 310)"
            clip-path="url(#clip-path)">
            <g id="링ᄀ_임" data-name="링게임" transform="translate(170 228)">
                <g id="그룹_64792" data-name="그룹 64792" transform="translate(0 0)">
                    <g id="그룹_64781" data-name="그룹 64781" transform="translate(14.546 36.175)">
                        <path id="패스_166" data-name="패스 166"
                            d="M11.639,32.683a19.063,19.063,0,0,0,7.454,1.484V30a15.484,15.484,0,0,1-5.884-1.156Z"
                            transform="translate(-11.639 -28.844)" fill="#fff" />
                    </g>
                    <g id="그룹_64782" data-name="그룹 64782" transform="translate(3.986 27.884)">
                        <path id="패스_167" data-name="패스 167"
                            d="M3.239,23.819a18.871,18.871,0,0,0,4.21,6.35l2.968-2.916a15.423,15.423,0,0,1-3.339-5Z"
                            transform="translate(-3.239 -22.249)" fill="#fff" />
                    </g>
                    <g id="그룹_64783" data-name="그룹 64783" transform="translate(8.153 3.977)">
                        <path id="패스_168" data-name="패스 168"
                            d="M14.517,7.08,12.938,3.232h0A19.666,19.666,0,0,0,6.554,7.5l2.968,2.916A15.811,15.811,0,0,1,14.517,7.08Z"
                            transform="translate(-6.554 -3.232)" fill="#fff" />
                    </g>
                    <g id="그룹_64784" data-name="그룹 64784" transform="translate(9.128 9.128)">
                        <path id="패스_169" data-name="패스 169"
                            d="M33.074,20.2A12.872,12.872,0,1,0,20.2,33.074,12.906,12.906,0,0,0,33.074,20.2Zm-5.789,3.848a4.473,4.473,0,0,1-5.6.647l1.622,3.658a.5.5,0,0,1-.466.7H17.6a.5.5,0,0,1-.466-.7l1.622-3.615a4.239,4.239,0,0,1-2.364.7,4.5,4.5,0,0,1-3.106-1.294,4.379,4.379,0,0,1,0-6.2l6.393-6.393a.729.729,0,0,1,1.018,0l6.436,6.3A4.413,4.413,0,0,1,27.285,24.049Z"
                            transform="translate(-7.329 -7.329)" fill="#c6c8cd" />
                    </g>
                    <g id="그룹_64785" data-name="그룹 64785" transform="translate(2.502 14.537)">
                        <path id="패스_170" data-name="패스 170"
                            d="M7.382,13.211,3.534,11.632h0A19.131,19.131,0,0,0,2.059,19.1H6.226A15.484,15.484,0,0,1,7.382,13.211Z"
                            transform="translate(-2.059 -11.632)" fill="#fff" />
                    </g>
                    <g id="그룹_64786" data-name="그룹 64786" transform="translate(22 2.502)">
                        <path id="패스_171" data-name="패스 171"
                            d="M25.023,3.543a19.7,19.7,0,0,0-7.454-1.484V6.226a15.484,15.484,0,0,1,5.884,1.156Z"
                            transform="translate(-17.569 -2.059)" fill="#fff" />
                    </g>
                    <g id="그룹_64787" data-name="그룹 64787" transform="translate(32.836 8.196)">
                        <path id="패스_172" data-name="패스 172"
                            d="M26.188,9.461a15.423,15.423,0,0,1,3.339,5l3.848-1.579a19.2,19.2,0,0,0-4.219-6.3Z"
                            transform="translate(-26.188 -6.588)" fill="#fff" />
                    </g>
                    <g id="그룹_64788" data-name="그룹 64788" transform="translate(27.884 32.845)">
                        <path id="패스_173" data-name="패스 173"
                            d="M22.249,29.525l1.579,3.848h0a18.432,18.432,0,0,0,6.341-4.262L27.2,26.2A15.271,15.271,0,0,1,22.249,29.525Z"
                            transform="translate(-22.249 -26.195)" fill="#fff" />
                    </g>
                    <g id="그룹_64789" data-name="그룹 64789" transform="translate(36.218 22.009)">
                        <path id="패스_174" data-name="패스 174"
                            d="M28.878,23.451l3.848,1.579a19.869,19.869,0,0,0,1.484-7.454H30.043A15.645,15.645,0,0,1,28.878,23.451Z"
                            transform="translate(-28.878 -17.575)" fill="#fff" />
                    </g>
                    <g id="그룹_64790" data-name="그룹 64790">
                        <path id="패스_175" data-name="패스 175"
                            d="M22.069.069a22,22,0,1,0,22,22A22.015,22.015,0,0,0,22.069.069Zm0,2.5a19.7,19.7,0,0,1,7.454,1.484L27.944,7.9A15.451,15.451,0,0,0,22.06,6.746ZM14.615,4.055h0L16.193,7.9a15.7,15.7,0,0,0-5,3.339L8.222,8.316A19.45,19.45,0,0,1,14.615,4.055ZM4.055,14.615h0L7.9,16.193a15.451,15.451,0,0,0-1.156,5.884H2.571A18.919,18.919,0,0,1,4.055,14.615Zm4.21,21.258a19.073,19.073,0,0,1-4.219-6.341l3.848-1.579a15.243,15.243,0,0,0,3.339,5Zm13.8,5.694a19.063,19.063,0,0,1-7.454-1.484l1.579-3.848a15.451,15.451,0,0,0,5.884,1.156Zm0-6.617A12.872,12.872,0,1,1,34.941,22.077,12.872,12.872,0,0,1,22.069,34.949Zm7.454,5.133h0l-1.579-3.848A14.938,14.938,0,0,0,32.9,32.9l2.968,2.916A18.216,18.216,0,0,1,29.523,40.083Zm10.612-10.56-3.848-1.579a15.451,15.451,0,0,0,1.156-5.884H41.61A19.875,19.875,0,0,1,40.135,29.523ZM36.244,16.142a15.243,15.243,0,0,0-3.339-5l2.968-2.873a19.338,19.338,0,0,1,4.219,6.3Z"
                            transform="translate(-0.069 -0.069)" fill="#c6c8cd" />
                    </g>
                    <g id="그룹_64791" data-name="그룹 64791" transform="translate(13.81 13.131)">
                        <path id="패스_176" data-name="패스 176"
                            d="M19.753,10.721a.729.729,0,0,0-1.018,0l-6.393,6.393a4.379,4.379,0,0,0,0,6.2,4.459,4.459,0,0,0,3.106,1.294,4.26,4.26,0,0,0,2.364-.7L16.19,27.527a.5.5,0,0,0,.466.7h5.237a.5.5,0,0,0,.466-.7l-1.622-3.658a4.473,4.473,0,0,0,5.6-.647,4.429,4.429,0,0,0-.138-6.2Z"
                            transform="translate(-11.054 -10.514)" fill="#fff" />
                    </g>
                </g>
                <g id="그룹_64793" data-name="그룹 64793" transform="translate(8.696 8.696)"
                    opacity="0.9">
                    <path id="패스_177" data-name="패스 177"
                        d="M20.29,33.6a13.308,13.308,0,1,1,13.3-13.312A13.321,13.321,0,0,1,20.29,33.6Zm0-25.753A12.441,12.441,0,1,0,32.731,20.29,12.456,12.456,0,0,0,20.29,7.849Z"
                        transform="translate(-6.986 -6.986)" fill="#fff" />
                </g>
            </g>
        </g>
    </g>
</svg>