<svg xmlns="http://www.w3.org/2000/svg" width="11" height="11" viewBox="0 0 11 11">
    <defs>
        <clipPath id="ytmz9c2maa">
            <path data-name="사각형 23850" style="fill:#3a4552" d="M0 0h11v11H0z"/>
        </clipPath>
    </defs>
    <g data-name="마스크 그룹 6565" style="clip-path:url(#ytmz9c2maa)">
        <g data-name="그룹 78703">
            <path data-name="Ellipse 92" d="M8.938 4.469a.344.344 0 1 0-.688 0zm-.9-2.063v.344a.344.344 0 0 0 .344-.344zM8.386.344a.344.344 0 0 0-.688 0zm-2.37 1.719a.344.344 0 1 0 0 .687zM8.25 4.469A3.781 3.781 0 0 1 4.469 8.25v.688a4.469 4.469 0 0 0 4.469-4.469zM4.469 8.25A3.781 3.781 0 0 1 .688 4.469H0a4.469 4.469 0 0 0 4.469 4.469zM.688 4.469A3.781 3.781 0 0 1 4.469.687V0A4.469 4.469 0 0 0 0 4.469zM4.469.687a3.78 3.78 0 0 1 3.275 1.891l.6-.344A4.467 4.467 0 0 0 4.469 0zm3.917 1.719V.344H7.7v2.062zm-.344-.344H6.016v.688h2.026z" transform="translate(1.031 1.031)" style="fill:#3a4552"/>
        </g>
    </g>
</svg>
