<svg xmlns="http://www.w3.org/2000/svg" width="24" height="24" viewBox="0 0 24 24">
    <defs>
        <clipPath id="3bebx364ha">
            <path data-name="사각형 23439" transform="translate(164 378)" style="stroke:#707070;fill:#c6c8cd" d="M0 0h24v24H0z"/>
        </clipPath>
    </defs>
    <g data-name="마스크 그룹 6474" transform="translate(-164 -378)" style="clip-path:url(#3bebx364ha)">
        <g data-name="그룹 76907">
            <path d="m16.073 19.786-.254.706zm-1.562-.562.254-.706zm-1.5.058L12.7 18.6zm-2.442 1.1-.308-.684zm-1.641 0 .308-.684zm-2.442-1.1L6.8 18.6zm-1.5-.058-.254-.706zm-1.562.562.254.706zM5.75 5a.75.75 0 0 0 0 1.5zm4 1.5a.75.75 0 0 0 0-1.5zm-4 2.5a.75.75 0 0 0 0 1.5zm8 1.5a.75.75 0 0 0 0-1.5zm-8 2.5a.75.75 0 0 0 0 1.5zm8 1.5a.75.75 0 0 0 0-1.5zm-11-13h14V0h-14zM18 2.75V17.9h1.5V2.75zm-1.673 16.33-1.562-.562-.508 1.411 1.562.562zM12.7 18.6l-2.442 1.1.616 1.368 2.442-1.1zm-3.463 1.1L6.8 18.6l-.62 1.366 2.442 1.1zm-4.5-1.178-1.562.562.508 1.411 1.562-.562zM1.5 17.9V2.75H0V17.9zm1.673 1.18A1.25 1.25 0 0 1 1.5 17.9H0a2.75 2.75 0 0 0 3.681 2.587zM6.8 18.6a2.75 2.75 0 0 0-2.06-.08l.508 1.411a1.249 1.249 0 0 1 .936.036zm3.468 1.1a1.25 1.25 0 0 1-1.026 0l-.616 1.368a2.75 2.75 0 0 0 2.257 0zm4.5-1.178a2.75 2.75 0 0 0-2.06.08l.616 1.368a1.249 1.249 0 0 1 .936-.036zM18 17.9a1.25 1.25 0 0 1-1.673 1.176l-.508 1.411A2.75 2.75 0 0 0 19.5 17.9zM16.75 1.5A1.25 1.25 0 0 1 18 2.75h1.5A2.75 2.75 0 0 0 16.75 0zM2.75 0A2.75 2.75 0 0 0 0 2.75h1.5A1.25 1.25 0 0 1 2.75 1.5zm3 6.5h4V5h-4zm0 4h8V9h-8zm0 4h8V13h-8z" transform="translate(166.25 379.347)" style="fill:#c6c8cd" data-name="Huge-icon/interface/outline/invoice"/>
        </g>
    </g>
</svg>
