<svg xmlns="http://www.w3.org/2000/svg" width="11" height="11" viewBox="0 0 11 11">
    <defs>
        <clipPath id="65y9txbyua">
            <path data-name="사각형 24304" style="stroke:#707070;fill:#3a4552" d="M0 0h11v11H0z"/>
        </clipPath>
    </defs>
    <g data-name="마스크 그룹 6684" style="clip-path:url(#65y9txbyua)">
        <path d="M.344 1.375a.344.344 0 1 0 0 .687zm0 4.583a.344.344 0 1 0 0 .688zm2.75.688a.344.344 0 0 0 0-.687zm5.5 0a.344.344 0 1 0 0-.687zm-2.75-5.271a.344.344 0 0 0 0 .687zm2.75.687a.344.344 0 1 0 0-.687zm-8.25 0h1.375v-.687H.344zm0 4.583h2.75v-.687H.344zm6.875 0h1.375v-.687H7.219zM5.844 2.063h2.75v-.688h-2.75zM6.875 6.3a1.031 1.031 0 0 1-1.031 1.033v.688A1.719 1.719 0 0 0 7.563 6.3zM5.844 7.333A1.031 1.031 0 0 1 4.813 6.3h-.688a1.719 1.719 0 0 0 1.719 1.721zM4.813 6.3a1.031 1.031 0 0 1 1.031-1.029v-.688A1.719 1.719 0 0 0 4.125 6.3zm1.031-1.029A1.031 1.031 0 0 1 6.875 6.3h.688a1.719 1.719 0 0 0-1.719-1.717zM4.125 1.719A1.031 1.031 0 0 1 3.094 2.75v.687a1.719 1.719 0 0 0 1.719-1.718zM3.094 2.75a1.031 1.031 0 0 1-1.031-1.031h-.688a1.719 1.719 0 0 0 1.719 1.719zM2.063 1.719A1.031 1.031 0 0 1 3.094.688V0a1.719 1.719 0 0 0-1.719 1.719zM3.094.688a1.031 1.031 0 0 1 1.031 1.031h.688A1.719 1.719 0 0 0 3.094 0z" style="fill:#3a4552" transform="translate(1.031 1.49)" data-name="그룹 83424"/>
    </g>
</svg>
