<svg xmlns="http://www.w3.org/2000/svg" width="24" height="24" viewBox="0 0 24 24">
    <defs>
        <clipPath id="lvmwsm87xa">
            <path data-name="사각형 23567" transform="translate(13946 -9171)" style="fill:#fff;stroke:#707070" d="M0 0h24v24H0z"/>
        </clipPath>
    </defs>
    <g style="clip-path:url(#lvmwsm87xa)">
        <path d="m18.495 13.471-.64-.392zm-.954 1.559.64.392zm-16.533-9-.64-.392zm.955-1.559.64.392zm2.608-.659.359-.659zM1.706 8.488l-.359.659zm13.227 7.2-.359.659zm2.867-4.676-.358.659zM1.962 15.029l-.64.392zm-.955-1.559.64-.392zm16.533-9 .64-.392zm.954 1.559-.64.392zm-.7 2.459.359.659zm-2.862-4.676.359.659zm-13.227 7.2.359.659zm2.864 4.677-.359-.659zM14.831 3.867l-.359-.659zm-10.16 0-.359.659zm10.16 11.766.359-.659zm-10.16 0 .359.659zM8.8 1.5h1.909V0H8.8zM10.706 18H8.8v1.5h1.909zM8.8 18a1.108 1.108 0 0 1-1.159-1.05h-1.5A2.606 2.606 0 0 0 8.8 19.5zm3.068-1.05A1.108 1.108 0 0 1 10.706 18v1.5a2.606 2.606 0 0 0 2.659-2.55zM10.706 1.5a1.108 1.108 0 0 1 1.159 1.05h1.5A2.606 2.606 0 0 0 10.706 0zM8.8 0a2.606 2.606 0 0 0-2.663 2.55h1.5A1.108 1.108 0 0 1 8.8 1.5zm9.059 13.079-.959 1.559 1.279.783.955-1.559zM1.647 6.421 2.6 4.862l-1.278-.783-.955 1.559zM2.6 4.862a1.224 1.224 0 0 1 1.61-.392l.717-1.317a2.723 2.723 0 0 0-3.606.926zM2.064 7.83a1 1 0 0 1-.418-1.408L.367 5.638a2.5 2.5 0 0 0 .98 3.509zM16.9 14.638a1.224 1.224 0 0 1-1.61.392l-.717 1.318a2.723 2.723 0 0 0 3.606-.926zm2.234-.776a2.5 2.5 0 0 0-.98-3.509l-.717 1.317a1 1 0 0 1 .418 1.408zM2.6 14.638l-.955-1.559-1.279.783.955 1.559zm14.3-9.776.955 1.559 1.279-.783-.954-1.559zm.955 1.559a1 1 0 0 1-.418 1.408l.717 1.317a2.5 2.5 0 0 0 .98-3.509zM15.291 4.47a1.224 1.224 0 0 1 1.61.392l1.279-.783a2.723 2.723 0 0 0-3.606-.926zM1.647 13.079a1 1 0 0 1 .418-1.408l-.717-1.317a2.5 2.5 0 0 0-.98 3.509zm-.325 2.342a2.723 2.723 0 0 0 3.606.926l-.717-1.318a1.224 1.224 0 0 1-1.61-.392zM15.19 4.526l.1-.055-.717-1.317-.1.055zM4.211 4.47l.1.055.719-1.317-.1-.055zm11.08 10.559-.1-.055-.717 1.317.1.055zm-10.979-.055-.1.055.717 1.318.1-.055zM1.347 9.147a.687.687 0 0 1 0 1.206l.717 1.317a2.187 2.187 0 0 0 0-3.841zm3.683 7.145a.749.749 0 0 1 1.108.658h1.5a2.249 2.249 0 0 0-3.325-1.976zm8.335.658a.75.75 0 0 1 1.108-.658l.717-1.317a2.25 2.25 0 0 0-3.325 1.976zm4.79-6.6a.687.687 0 0 1 0-1.206l-.717-1.314a2.186 2.186 0 0 0 0 3.841zM4.312 4.526A2.249 2.249 0 0 0 7.637 2.55h-1.5a.749.749 0 0 1-1.108.658zm10.16-1.317a.749.749 0 0 1-1.108-.658h-1.5a2.25 2.25 0 0 0 3.326 1.975zM12 9.75A2.25 2.25 0 0 1 9.751 12v1.5A3.75 3.75 0 0 0 13.5 9.75zM9.751 12A2.25 2.25 0 0 1 7.5 9.75H6a3.75 3.75 0 0 0 3.75 3.75zM7.5 9.75A2.25 2.25 0 0 1 9.751 7.5V6A3.75 3.75 0 0 0 6 9.75zM9.751 7.5A2.25 2.25 0 0 1 12 9.75h1.5A3.75 3.75 0 0 0 9.751 6z" transform="translate(2.249 2.25)" style="fill:#28303f" data-name="마스크 그룹 6527"/>
    </g>
</svg>
