<svg xmlns="http://www.w3.org/2000/svg" xmlns:xlink="http://www.w3.org/1999/xlink" width="24"
    height="24" viewBox="0 0 24 24">
    <defs>
        <clipPath id="clip-path">
            <rect id="사각형_23567" data-name="사각형 23567" width="24" height="24"
                transform="translate(13946 -9171)" fill="#fff" stroke="#707070" stroke-width="1" />
        </clipPath>
    </defs>
    <g id="마스크_그룹_6527" data-name="마스크 그룹 6527" transform="translate(-13946 9171)"
        clip-path="url(#clip-path)">
        <path id="Vector"
            d="M18.495,13.471l-.64-.392h0Zm-.954,1.559.64.392h0Zm-16.533-9-.64-.392h0Zm.955-1.559.64.392h0Zm2.608-.659.359-.659h0ZM1.706,8.488l-.359.659h0Zm13.227,7.2-.359.659h0ZM17.8,11.012l-.358.659h0ZM1.962,15.029l-.64.392h0Zm-.955-1.559.64-.392h0Zm16.533-9,.64-.392h0Zm.954,1.559-.64.392h0Zm-.7,2.459.359.659h0ZM14.932,3.812l.359.659h0Zm-13.227,7.2.359.659h0Zm2.864,4.677-.359-.659h0ZM14.831,3.867l-.359-.659h0Zm-10.16,0-.359.659h0Zm10.16,11.766.359-.659h0Zm-10.16,0,.359.659h0ZM8.8,1.5h1.909V0H8.8ZM10.706,18H8.8v1.5h1.909ZM8.8,18a1.108,1.108,0,0,1-1.159-1.05h-1.5A2.606,2.606,0,0,0,8.8,19.5Zm3.068-1.05A1.108,1.108,0,0,1,10.706,18v1.5a2.606,2.606,0,0,0,2.659-2.55ZM10.706,1.5a1.108,1.108,0,0,1,1.159,1.05h1.5A2.606,2.606,0,0,0,10.706,0ZM8.8,0A2.606,2.606,0,0,0,6.137,2.55h1.5A1.108,1.108,0,0,1,8.8,1.5Zm9.059,13.079L16.9,14.638l1.279.783.955-1.559ZM1.647,6.421,2.6,4.862,1.322,4.079.367,5.638ZM2.6,4.862a1.224,1.224,0,0,1,1.61-.392l.717-1.317a2.723,2.723,0,0,0-3.606.926ZM2.064,7.83a1,1,0,0,1-.418-1.408L.367,5.638a2.5,2.5,0,0,0,.98,3.509ZM16.9,14.638a1.224,1.224,0,0,1-1.61.392l-.717,1.318a2.723,2.723,0,0,0,3.606-.926Zm2.234-.776a2.5,2.5,0,0,0-.98-3.509l-.717,1.317a1,1,0,0,1,.418,1.408ZM2.6,14.638l-.955-1.559-1.279.783.955,1.559ZM16.9,4.862l.955,1.559,1.279-.783L18.18,4.079Zm.955,1.559a1,1,0,0,1-.418,1.408l.717,1.317a2.5,2.5,0,0,0,.98-3.509ZM15.291,4.47a1.224,1.224,0,0,1,1.61.392l1.279-.783a2.723,2.723,0,0,0-3.606-.926ZM1.647,13.079a1,1,0,0,1,.418-1.408l-.717-1.317a2.5,2.5,0,0,0-.98,3.509Zm-.325,2.342a2.723,2.723,0,0,0,3.606.926l-.717-1.318a1.224,1.224,0,0,1-1.61-.392ZM15.19,4.526l.1-.055-.717-1.317-.1.055ZM4.211,4.47l.1.055L5.03,3.208l-.1-.055Zm11.08,10.559-.1-.055-.717,1.317.1.055ZM4.312,14.974l-.1.055.717,1.318.1-.055ZM1.347,9.147a.687.687,0,0,1,0,1.206l.717,1.317a2.187,2.187,0,0,0,0-3.841ZM5.03,16.292a.749.749,0,0,1,1.108.658h1.5a2.249,2.249,0,0,0-3.325-1.976Zm8.335.658a.75.75,0,0,1,1.108-.658l.717-1.317a2.25,2.25,0,0,0-3.325,1.976Zm4.79-6.6a.687.687,0,0,1,0-1.206L17.438,7.83a2.186,2.186,0,0,0,0,3.841ZM4.312,4.526A2.249,2.249,0,0,0,7.637,2.55h-1.5a.749.749,0,0,1-1.108.658Zm10.16-1.317a.749.749,0,0,1-1.108-.658h-1.5A2.25,2.25,0,0,0,15.19,4.526ZM12,9.75A2.25,2.25,0,0,1,9.751,12v1.5A3.75,3.75,0,0,0,13.5,9.75ZM9.751,12A2.25,2.25,0,0,1,7.5,9.75H6a3.75,3.75,0,0,0,3.75,3.75ZM7.5,9.75A2.25,2.25,0,0,1,9.751,7.5V6A3.75,3.75,0,0,0,6,9.75ZM9.751,7.5A2.25,2.25,0,0,1,12,9.75h1.5A3.75,3.75,0,0,0,9.751,6Z"
            transform="translate(13948.249 -9168.75)" fill="#28303f" />
    </g>
</svg>