<svg xmlns="http://www.w3.org/2000/svg" width="24" height="24" viewBox="0 0 24 24">
    <defs>
        <clipPath id="nkvaxf8fda">
            <path data-name="사각형 23427" transform="translate(151 532)" style="stroke:#707070;fill:#c6c8cd" d="M0 0h24v24H0z"/>
        </clipPath>
        <clipPath id="bprxedx4jb">
            <path data-name="사각형 23446" transform="translate(229 351)" style="fill:#fff;stroke:#707070" d="M0 0h24v24H0z"/>
        </clipPath>
    </defs>
    <g data-name="마스크 그룹 6467" transform="translate(-151 -532)" style="clip-path:url(#nkvaxf8fda)">
        <g data-name="마스크 그룹 6479" transform="translate(-78 181)" style="clip-path:url(#bprxedx4jb)">
            <g data-name="그룹 76930">
                <path data-name="Combo shape" d="M20 4v2.25A3.56 3.56 0 0 1 16.667 10a3.56 3.56 0 0 1-3.333-3.75A3.56 3.56 0 0 1 10 10a3.56 3.56 0 0 1-3.333-3.75A3.56 3.56 0 0 1 3.333 10 3.56 3.56 0 0 1 0 6.25V4a4 4 0 0 1 4-4h12a4 4 0 0 1 4 4zm-6.667 6.056a4.564 4.564 0 0 0 3.334 1.444A4.5 4.5 0 0 0 19 10.857V16a4 4 0 0 1-4 4H9v-3a2 2 0 0 0-4 0v3a4 4 0 0 1-4-4v-5.143a4.5 4.5 0 0 0 2.333.643 4.564 4.564 0 0 0 3.333-1.444 4.569 4.569 0 0 0 6.667 0zM13 13a1 1 0 0 0-1 1v1a1 1 0 0 0 1 1h2a1 1 0 0 0 1-1v-1a1 1 0 0 0-1-1z" style="fill:#28303f;fill-rule:evenodd" transform="translate(231 353)"/>
            </g>
        </g>
    </g>
</svg>
