<svg xmlns="http://www.w3.org/2000/svg" width="24" height="24" viewBox="0 0 24 24">
    <defs>
        <clipPath id="4kxcxfhuta">
            <path data-name="사각형 23427" transform="translate(151 532)" style="stroke:#707070;fill:#c6c8cd" d="M0 0h24v24H0z"/>
        </clipPath>
    </defs>
    <g data-name="마스크 그룹 6467" transform="translate(-151 -532)" style="clip-path:url(#4kxcxfhuta)">
        <g data-name="그룹 76778">
            <path data-name="Rectangle 754" d="M4.75 6.75v.75a.75.75 0 0 0 .75-.75zm-4 0H0a.75.75 0 0 0 .75.75zm3.25-4v4h1.5v-4zM4.75 6h-4v1.5h4zm-3.25.75v-4H0v4zM2.75 1.5A1.25 1.25 0 0 1 4 2.75h1.5A2.75 2.75 0 0 0 2.75 0zm0-1.5A2.75 2.75 0 0 0 0 2.75h1.5A1.25 1.25 0 0 1 2.75 1.5z" transform="translate(157.25 547.25)" style="fill:#c6c8cd"/>
            <path d="M14.833 7a.75.75 0 0 0-1.5 0zM8.167 7a.75.75 0 0 0-1.5 0zM20 4.75V7h1.5V4.75zM17.417 10a2.815 2.815 0 0 1-2.583-3h-1.5a4.307 4.307 0 0 0 4.083 4.5zM20 7a2.814 2.814 0 0 1-2.583 3v1.5A4.307 4.307 0 0 0 21.5 7zm-9.25 3a2.814 2.814 0 0 1-2.583-3h-1.5a4.307 4.307 0 0 0 4.083 4.5zm2.583-3a2.814 2.814 0 0 1-2.583 3v1.5A4.307 4.307 0 0 0 14.833 7zM1.5 7V4.75H0V7zm2.583 3A2.814 2.814 0 0 1 1.5 7H0a4.307 4.307 0 0 0 4.083 4.5zm2.584-3a2.815 2.815 0 0 1-2.583 3v1.5A4.307 4.307 0 0 0 8.167 7zM16.75 0h-12v1.5h12zM1.5 4.75A3.25 3.25 0 0 1 4.75 1.5V0A4.75 4.75 0 0 0 0 4.75zm20 0A4.75 4.75 0 0 0 16.75 0v1.5A3.25 3.25 0 0 1 20 4.75z" transform="translate(152.25 533.25)" style="fill:#c6c8cd"/>
            <path data-name="Rectangle 755" d="M1.75 1.5h2V0h-2zM4 1.75v1h1.5v-1zM3.75 3h-2v1.5h2zM1.5 2.75v-1H0v1zm.25.25a.25.25 0 0 1-.25-.25H0A1.75 1.75 0 0 0 1.75 4.5zM4 2.75a.25.25 0 0 1-.25.25v1.5A1.75 1.75 0 0 0 5.5 2.75zM3.75 1.5a.25.25 0 0 1 .25.25h1.5A1.75 1.75 0 0 0 3.75 0zm-2-1.5A1.75 1.75 0 0 0 0 1.75h1.5a.25.25 0 0 1 .25-.25z" transform="translate(164.25 545.25)" style="fill:#c6c8cd"/>
            <path data-name="Rectangle 753" d="M18 0v7h1.5V0zm-3.25 10.25h-10v1.5h10zM1.5 7V0H0v7zm3.25 3.25A3.25 3.25 0 0 1 1.5 7H0a4.75 4.75 0 0 0 4.75 4.75zM18 7a3.25 3.25 0 0 1-3.25 3.25v1.5A4.75 4.75 0 0 0 19.5 7z" transform="translate(153.25 543)" style="fill:#c6c8cd"/>
        </g>
    </g>
</svg>
