<svg xmlns="http://www.w3.org/2000/svg" width="24" height="24" viewBox="0 0 24 24">
    <defs>
        <clipPath id="8jv7d6lela">
            <path data-name="사각형 23554" transform="translate(163 555)" style="fill:#fff;stroke:#707070" d="M0 0h24v24H0z"/>
        </clipPath>
    </defs>
    <g data-name="마스크 그룹 6522" transform="translate(-163 -555)" style="clip-path:url(#8jv7d6lela)">
        <g data-name="그룹 77592">
            <path data-name="Rectangle 742" d="M16 0v6h1.5V0zm-3.25 9.25h-8v1.5h8zM1.5 6V0H0v6zm3.25 3.25A3.25 3.25 0 0 1 1.5 6H0a4.75 4.75 0 0 0 4.75 4.75zM16 6a3.25 3.25 0 0 1-3.25 3.25v1.5A4.75 4.75 0 0 0 17.5 6z" transform="translate(166.25 567)" style="fill:#28303f"/>
            <path d="m19.589 3.893.707-.251zm.758 2.132.707-.251zm-19.307 0 .707.251zm.76-2.132.707.251zM14.777 7a.75.75 0 0 0-1.5 0zm5.791 1.025-.727-.183zM8.11 7a.75.75 0 0 0-1.5 0zM.82 8.025l-.727.183zM5.925 1.5h9.537V0H5.925zm12.957 2.644.758 2.132 1.413-.5-.753-2.134zM1.747 6.276 2.5 4.144l-1.413-.5-.753 2.13zM15.462 1.5a3.734 3.734 0 0 1 3.42 2.644l1.413-.5A5.23 5.23 0 0 0 15.462 0zM5.925 0a5.23 5.23 0 0 0-4.833 3.642l1.413.5A3.734 3.734 0 0 1 5.925 1.5zM17.36 10a2.814 2.814 0 0 1-2.583-3h-1.5a4.307 4.307 0 0 0 4.083 4.5zm2.48-2.158A2.673 2.673 0 0 1 17.36 10v1.5a4.168 4.168 0 0 0 3.935-3.292zM10.693 10A2.814 2.814 0 0 1 8.11 7h-1.5a4.307 4.307 0 0 0 4.083 4.5zm2.583-3a2.814 2.814 0 0 1-2.583 3v1.5A4.307 4.307 0 0 0 14.777 7zm-9.25 3a2.673 2.673 0 0 1-2.48-2.158l-1.454.366A4.168 4.168 0 0 0 4.027 11.5zM6.61 7a2.814 2.814 0 0 1-2.583 3v1.5A4.307 4.307 0 0 0 8.11 7zM.334 5.774a4.207 4.207 0 0 0-.242 2.434l1.455-.367a2.761 2.761 0 0 1 .2-1.565zm19.307.5a2.762 2.762 0 0 1 .2 1.565l1.455.367a4.207 4.207 0 0 0-.241-2.435z" transform="translate(164.307 556.25)" style="fill:#28303f"/>
        </g>
    </g>
</svg>
