<svg xmlns="http://www.w3.org/2000/svg" width="105" height="165" viewBox="0 0 105 165">
    <defs>
        <clipPath id="lwq3imdcua">
            <path data-name="사각형 23910" style="stroke:#707070;fill:#2a323b" d="M0 0h75v75H0z"/>
        </clipPath>
        <clipPath id="ayrbtu7ayb">
            <path data-name="사각형 24330" transform="translate(129.521 129.521)" style="fill:#5e48e8;stroke:#707070" d="M0 0h105v105H0z"/>
        </clipPath>
    </defs>
    <g data-name="그룹 83709">
        <g data-name="그룹 83707">
            <g data-name="마스크 그룹 6572" transform="translate(15 90)" style="clip-path:url(#lwq3imdcua)">
                <g data-name="마스크 그룹 6571" style="clip-path:url(#lwq3imdcua)">
                    <g data-name="그룹 79486">
                        <path data-name="Combo shape" d="M62.5 12.5v7.031C62.5 26 57.836 31.25 52.083 31.25S41.667 26 41.667 19.531C41.667 26 37 31.25 31.25 31.25S20.833 26 20.833 19.531c0 6.469-4.663 11.719-10.416 11.719S0 26 0 19.531V12.5A12.5 12.5 0 0 1 12.5 0H50a12.5 12.5 0 0 1 12.5 12.5zM41.667 31.425a14.263 14.263 0 0 0 10.417 4.513 14.06 14.06 0 0 0 7.292-2.008V50a12.5 12.5 0 0 1-12.5 12.5H28.125v-9.375a6.25 6.25 0 0 0-12.5 0V62.5A12.5 12.5 0 0 1 3.125 50V33.929a14.06 14.06 0 0 0 7.292 2.008 14.263 14.263 0 0 0 10.417-4.513 14.279 14.279 0 0 0 20.833 0zm-1.042 9.2A3.125 3.125 0 0 0 37.5 43.75v3.125A3.125 3.125 0 0 0 40.625 50h6.25A3.125 3.125 0 0 0 50 46.875V43.75a3.125 3.125 0 0 0-3.125-3.125z" transform="translate(6.25 6.25)" style="fill-rule:evenodd;fill:#2a323b"/>
                    </g>
                </g>
            </g>
        </g>
        <g data-name="마스크 그룹 6691" transform="translate(-129.521 -129.521)" style="clip-path:url(#ayrbtu7ayb)">
            <g data-name="그룹 83708">
                <path data-name="합치기 25" d="m40.328 99.963-27.99-27.989a42.168 42.168 0 1 1 71.974-29.818 41.479 41.479 0 0 1-12.567 29.818l-27.99 27.989a2.325 2.325 0 0 1-1.714.686 2.52 2.52 0 0 1-1.713-.686zM23.077 22.849a26.981 26.981 0 0 0 38.158 38.157 26.5 26.5 0 0 0 7.883-19.079 26.981 26.981 0 0 0-46.04-19.078zm15.88 43.3.8-6.169a18.207 18.207 0 0 1-6.854-2.4l-3.2 5.37a26.088 26.088 0 0 1-7.2-6.512l5.027-3.656a16.161 16.161 0 0 1-2.4-4.341l-5.826 2.285a25.032 25.032 0 0 1-1.6-8.8v-.8l6.169.229a18.46 18.46 0 0 1 1.713-7.083l-5.6-2.628c.457-.914.914-1.828 1.485-2.742a25.345 25.345 0 0 1 4.229-5.025l4.227 4.57a16.813 16.813 0 0 1 6.284-3.77l-2.056-5.827a27.908 27.908 0 0 1 3.313-.914 21.04 21.04 0 0 1 4.685-.457h1.6l-.343 6.169a20.392 20.392 0 0 1 6.969 1.942l2.742-5.6a24.625 24.625 0 0 1 7.654 6.055l-4.684 4a17.4 17.4 0 0 1 3.428 6.4l5.94-1.828a20.512 20.512 0 0 1 1.028 5.141 13.172 13.172 0 0 1 .114 2.17 16.94 16.94 0 0 1-.114 2.4l-6.169-.571a17.8 17.8 0 0 1-2.171 6.969l5.484 2.97a26.191 26.191 0 0 1-6.281 7.424l-3.884-4.913a19.516 19.516 0 0 1-6.512 3.313l1.713 5.94a24.213 24.213 0 0 1-6.511.914 28.193 28.193 0 0 1-3.199-.227zM25.933 41.927A16.223 16.223 0 1 0 42.156 25.7a16.286 16.286 0 0 0-16.223 16.227z" transform="translate(139.865 131.697)" style="fill:#5e48e8"/>
            </g>
        </g>
    </g>
</svg>
