<svg xmlns="http://www.w3.org/2000/svg" width="24" height="24" viewBox="0 0 24 24">
    <defs>
        <clipPath id="r7l5ad8qsa">
            <path data-name="사각형 23429" transform="translate(175 336)" style="stroke:#707070;fill:#c6c8cd" d="M0 0h24v24H0z"/>
        </clipPath>
    </defs>
    <g data-name="마스크 그룹 6469" transform="translate(-175 -336)" style="clip-path:url(#r7l5ad8qsa)">
        <path d="M16.75 11.75zm0 2zm-4 0zm0-2zm-4-4zm-2 8zm2-2zm-4 0zm0-6zm7.25 4v2h1.5v-2zm5.5 2v-2H16v2zm0-2A2.75 2.75 0 0 0 14.75 9v1.5A1.25 1.25 0 0 1 16 11.75zm-2.75 4.75a2.75 2.75 0 0 0 2.75-2.75H16A1.25 1.25 0 0 1 14.75 15zM12 13.75a2.75 2.75 0 0 0 2.75 2.75V15a1.25 1.25 0 0 1-1.25-1.25zm1.5-2a1.25 1.25 0 0 1 1.25-1.25V9A2.75 2.75 0 0 0 12 11.75zm-9.5-4v6h1.5v-6zm5.5 6v-6H8v6zm0-6A2.75 2.75 0 0 0 6.75 5v1.5A1.25 1.25 0 0 1 8 7.75zM6.75 16.5a2.75 2.75 0 0 0 2.75-2.75H8A1.25 1.25 0 0 1 6.75 15zM4 13.75a2.75 2.75 0 0 0 2.75 2.75V15a1.25 1.25 0 0 1-1.25-1.25zm1.5-6A1.25 1.25 0 0 1 6.75 6.5V5A2.75 2.75 0 0 0 4 7.75zM4.75 1.5h12V0h-12zM20 4.75v12h1.5v-12zM16.75 20h-12v1.5h12zM1.5 16.75v-12H0v12zM4.75 20a3.25 3.25 0 0 1-3.25-3.25H0a4.75 4.75 0 0 0 4.75 4.75zM20 16.75A3.25 3.25 0 0 1 16.75 20v1.5a4.75 4.75 0 0 0 4.75-4.75zM16.75 1.5A3.25 3.25 0 0 1 20 4.75h1.5A4.75 4.75 0 0 0 16.75 0zM4.75 0A4.75 4.75 0 0 0 0 4.75h1.5A3.25 3.25 0 0 1 4.75 1.5z" transform="translate(176.75 337.25)" style="fill:#c6c8cd" data-name="그룹 76780"/>
    </g>
</svg>
