<svg xmlns="http://www.w3.org/2000/svg" width="24" height="24" viewBox="0 0 24 24">
    <defs>
        <clipPath id="d1a7vemwta">
            <path data-name="사각형 23568" transform="translate(14001 -9171)" style="fill:#fff;stroke:#707070" d="M0 0h24v24H0z"/>
        </clipPath>
    </defs>
    <g data-name="마스크 그룹 6526" transform="translate(-14001 9171)" style="clip-path:url(#d1a7vemwta)">
        <path d="M12.75 19.5a.75.75 0 0 0 0-1.5zM20 11.75a.75.75 0 1 0 1.5 0zm-17.75 7-.6.45a.75.75 0 0 0 1.2 0zm-.7-.933-.6.45zm1.4 0 .6.45zM.75 4a.75.75 0 0 0 0 1.5zm3 1.5a.75.75 0 1 0 0-1.5zm7-1.5a.75.75 0 0 0 0 1.5zm6 1.5a.75.75 0 0 0 0-1.5zm-6 2.5a.75.75 0 0 0 0 1.5zm6 1.5a.75.75 0 0 0 0-1.5zm-6 2.5a.75.75 0 1 0 0 1.5zm3 1.5a.75.75 0 1 0 0-1.5zm1.469 2.664a.75.75 0 1 0-.937 1.171zm1.281 1.988-.469.586zm1.377-.122-.564-.494zm3.434-2.786a.75.75 0 1 0-1.129-.988zM10.75 1.5h6V0h-6zM7.5 14.75v-10H6v10zM12.75 18h-2v1.5h2zM20 4.75v7h1.5v-7zm-14 10a4.75 4.75 0 0 0 4.75 4.75V18a3.25 3.25 0 0 1-3.25-3.25zM16.75 1.5A3.25 3.25 0 0 1 20 4.75h1.5A4.75 4.75 0 0 0 16.75 0zm-6-1.5A4.75 4.75 0 0 0 6 4.75h1.5a3.25 3.25 0 0 1 3.25-3.25zM3 2.25v13.167h1.5V2.25zM1.5 15.417V2.25H0v13.167zm.85 1.95-.7.933 1.2.9.7-.933zm.5.933-.7-.933-1.2.9.7.933zM0 15.417a4.75 4.75 0 0 0 .95 2.85l1.2-.9a3.25 3.25 0 0 1-.65-1.95zm3 0a3.25 3.25 0 0 1-.65 1.95l1.2.9a4.75 4.75 0 0 0 .95-2.85zM2.25 1.5a.75.75 0 0 1 .75.75h1.5A2.25 2.25 0 0 0 2.25 0zm0-1.5A2.25 2.25 0 0 0 0 2.25h1.5a.75.75 0 0 1 .75-.75zM.75 5.5h3V4h-3zm10 0h6V4h-6zm0 4h6V8h-6zm0 4h3V12h-3zm3.532 3.836 1.753 1.4.937-1.171-1.753-1.4zm4.163 1.188 2.87-3.28-1.129-.988-2.87 3.28zm-2.41.214a1.75 1.75 0 0 0 2.41-.214l-1.129-.988a.25.25 0 0 1-.344.031z" style="fill:#28303f" transform="translate(14002.248 -9168.75)" data-name="그룹 77665"/>
    </g>
</svg>
