<svg xmlns="http://www.w3.org/2000/svg" width="125" height="63" viewBox="0 0 125 63">
    <defs>
        <clipPath id="fbjjih0eja">
            <path data-name="사각형 24054" transform="translate(100 172)" style="stroke:#707070;fill:#5e48e8" d="M0 0h125v63H0z"/>
        </clipPath>
    </defs>
    <g data-name="마스크 그룹 6640" transform="translate(-100 -172)" style="clip-path:url(#fbjjih0eja)">
        <path data-name="패스 2588" d="M76.481 176.918a2.591 2.591 0 0 0-2.591-2.568 2.571 2.571 0 0 1 2.591 2.568 7.237 7.237 0 0 0-3.508-6.232 19.82 19.82 0 0 0-7.047-2.6c-5.088-1.1-5.088-2.975-4.9-4.322.19-1.472 1.485-2.349 4.835-2.161a1.684 1.684 0 0 0 .411.031 13.961 13.961 0 0 1 5.119 1.754 2.578 2.578 0 0 0 3.476-1.1 2.533 2.533 0 0 0-1.106-3.445 19.165 19.165 0 0 0-7.173-2.317 19.945 19.945 0 0 0-1.327-.063c-5.562 0-9.385 2.631-9.512 8.33a7.011 7.011 0 0 0 3.539 6.263 16.473 16.473 0 0 0 5.562 2.067h.032c6.446 1.347 6.446 3.1 6.446 3.789a2.762 2.762 0 0 1-.853 2.036 5.781 5.781 0 0 1-4.013 1.221h-.348a13.331 13.331 0 0 1-7.3-2.537 2.574 2.574 0 0 0-3.571.752 2.524 2.524 0 0 0 .757 3.544 18.291 18.291 0 0 0 10.017 3.351h.411c4.013 0 6.352-1.441 7.616-2.662a7.7 7.7 0 0 0 2.433-5.7z" transform="translate(55.983 49.427)" style="fill:#5e48e8"/>
        <path data-name="패스 2589" d="M117.124 157.775h-9.29a2.591 2.591 0 0 0-2.591 2.568v22.328a2.591 2.591 0 0 0 5.182 0v-5.418h6.7a9.74 9.74 0 1 0 0-19.478zm0 14.343h-6.7v-9.208h6.7a4.6 4.6 0 1 1 0 9.207z" transform="translate(32.404 48.81)" style="fill:#5e48e8"/>
        <path data-name="패스 2590" d="M163.177 156.231a14.531 14.531 0 1 0 0 29.061 14.531 14.531 0 1 0 0-29.061zm0 23.956a9.4 9.4 0 1 1 0-18.789 9.4 9.4 0 1 1 0 18.789z" transform="translate(12.168 49.539)" style="fill:#5e48e8"/>
        <path data-name="패스 2591" d="M225.384 157.775h-18.9a2.568 2.568 0 1 0 0 5.136h6.857v19.76a2.591 2.591 0 0 0 5.182 0V162.91h6.857a2.568 2.568 0 1 0 0-5.136z" transform="translate(-13.731 48.81)" style="fill:#5e48e8"/>
        <path data-name="패스 2592" d="M46.309 112.137a9.74 9.74 0 1 0 0-19.478h-9.29a2.591 2.591 0 0 0-2.591 2.568v22.328a2.591 2.591 0 0 0 5.182 0v-5.418zm4.645-9.708a4.632 4.632 0 0 1-4.645 4.6h-6.7v-9.203h6.7a4.632 4.632 0 0 1 4.646 4.603z" transform="translate(65.52 79.573)" style="fill:#5e48e8"/>
        <path data-name="패스 2593" d="M135.159 144.775z" transform="translate(18.414 54.952)" style="fill:#5e48e8"/>
        <path data-name="패스 2594" d="M132.883 120.182a2.591 2.591 0 0 0 2.591-2.568v-4.948l15.168-15.6a2.583 2.583 0 0 0-.063-3.633 2.64 2.64 0 0 0-3.666.063l-11.439 11.743v-9.953a2.591 2.591 0 0 0-5.182 0v22.328a2.571 2.571 0 0 0 2.591 2.568z" transform="translate(20.69 79.545)" style="fill:#5e48e8"/>
        <path data-name="패스 2595" d="M154.332 115.63z" transform="translate(9.448 68.721)" style="fill:#5e48e8"/>
        <path data-name="패스 2596" d="M156.385 130.067a2.567 2.567 0 0 0 1.991.939 2.571 2.571 0 0 0 1.991-4.2l-9.227-11.18-3.634 3.727z" transform="translate(12.64 68.721)" style="fill:#5e48e8"/>
        <path data-name="패스 2597" d="M183.516 120.154h15.01a2.568 2.568 0 1 0 0-5.136h-12.419v-6.044h10.238a2.568 2.568 0 1 0 0-5.136h-10.238v-6.044h12.419a2.568 2.568 0 1 0 0-5.136h-15.01a2.591 2.591 0 0 0-2.591 2.568v22.328a2.6 2.6 0 0 0 2.591 2.6z" transform="translate(-2.988 79.573)" style="fill:#5e48e8"/>
        <path data-name="패스 2598" d="M244.366 110.035a9.093 9.093 0 0 0-3.95-17.318h-10.838a2.591 2.591 0 0 0-2.591 2.568v22.328a2.591 2.591 0 0 0 5.182 0v-6.7h6.32l6.446 8.267a2.566 2.566 0 0 0 2.054 1 2.664 2.664 0 0 0 1.58-.532 2.568 2.568 0 0 0 .474-3.6zm-12.2-4.259v-7.922h8.248a3.946 3.946 0 1 1 0 7.892h-8.248z" transform="translate(-24.529 79.545)" style="fill:#5e48e8"/>
        <path data-name="패스 2599" d="M251.006 117.47z" transform="translate(-35.751 67.851)" style="fill:#5e48e8"/>
        <path data-name="패스 2600" d="M104.582 104.1a11.514 11.514 0 0 0-3.413-8.173 11.747 11.747 0 0 0-16.5 0 11.494 11.494 0 0 0 0 16.347l7.742 7.672a.7.7 0 0 0 .474.188.646.646 0 0 0 .474-.188l7.742-7.672a11.319 11.319 0 0 0 3.481-8.174zm-6.382 5.162a7.524 7.524 0 0 1-10.554 0 7.362 7.362 0 0 1 0-10.459 7.524 7.524 0 0 1 10.554 0 7.36 7.36 0 0 1 2.18 5.23 7.231 7.231 0 0 1-2.18 5.229z" transform="translate(43.618 79.629)" style="fill:#5e48e8"/>
        <path data-name="패스 2601" d="m101.08 105.066 1.3-1.1a6.8 6.8 0 0 0-2.117-1.66l-.758 1.534a5.679 5.679 0 0 0-1.928-.532l.095-1.691h-.442a5.867 5.867 0 0 0-1.3.125 7.81 7.81 0 0 0-.916.251l.569 1.6a4.658 4.658 0 0 0-1.738 1.033l-1.169-1.253a6.956 6.956 0 0 0-1.169 1.378c-.158.251-.284.5-.411.752l1.548.72a5.02 5.02 0 0 0-.474 1.942l-1.706-.063v.219a6.807 6.807 0 0 0 .442 2.411l1.612-.626a4.419 4.419 0 0 0 .664 1.19l-1.39 1a7.193 7.193 0 0 0 1.991 1.785l.885-1.472a5.064 5.064 0 0 0 1.9.658l-.221 1.691a7.835 7.835 0 0 0 .885.063 6.758 6.758 0 0 0 1.8-.251l-.474-1.628a5.416 5.416 0 0 0 1.8-.908l1.074 1.347a7.2 7.2 0 0 0 1.738-2.036l-1.517-.814a4.846 4.846 0 0 0 .6-1.91l1.706.157a4.582 4.582 0 0 0 .032-.658 3.563 3.563 0 0 0-.032-.6 5.583 5.583 0 0 0-.284-1.409l-1.643.5a4.751 4.751 0 0 0-.952-1.745zm-3.855 7.7a4.447 4.447 0 1 1 4.487-4.447 4.484 4.484 0 0 1-4.487 4.451z" transform="translate(39.316 75.339)" style="fill:#5e48e8"/>
    </g>
</svg>
