<svg xmlns="http://www.w3.org/2000/svg" width="24" height="24" viewBox="0 0 24 24">
    <defs>
        <clipPath id="7liwavtjza">
            <circle data-name="타원 2717" cx="12" cy="12" r="12" transform="translate(20 246)" style="stroke:#707070;fill:#e9ebee"/>
        </clipPath>
    </defs>
    <g style="clip-path:url(#7liwavtjza)">
        <path d="M17.077 5.077a12 12 0 1 0 12 12 12.014 12.014 0 0 0-12-12zm-2.9 6.74a4.079 4.079 0 0 1 5.788.007 3.872 3.872 0 0 1 1.02 2.99 4.263 4.263 0 0 1-3.911 4.11 4.26 4.26 0 0 1-3.911-4.111 3.888 3.888 0 0 1 1.017-2.996zm2.9 15.414a10.124 10.124 0 0 1-7.269-3.07 7.091 7.091 0 0 1 2.027-1.929 9.808 9.808 0 0 1 5.242-1.462 9.8 9.8 0 0 1 5.24 1.462 7.089 7.089 0 0 1 2.029 1.929 10.122 10.122 0 0 1-7.269 3.07z" transform="translate(-5.077 -5.077)" style="fill:#e9ebee" data-name="마스크 그룹 6678"/>
    </g>
</svg>
