<svg xmlns="http://www.w3.org/2000/svg" width="24" height="24" viewBox="0 0 24 24">
    <defs>
        <clipPath id="rve23keb8a">
            <path data-name="사각형 22681" transform="translate(139 644)" style="fill:#2a323b" d="M0 0h24v24H0z"/>
        </clipPath>
    </defs>
    <g data-name="마스크 그룹 6200" transform="translate(-139 -644)" style="clip-path:url(#rve23keb8a)">
        <g data-name="그룹 64521">
            <path data-name="Ellipse 1124" d="M2 1a1 1 0 1 1-1-1 1 1 0 0 1 1 1z" transform="translate(150 662.375)" style="fill:#2a323b"/>
            <path d="M19.134 4.969a.75.75 0 0 0 1.012-1.107zM15.914 8.8a.75.75 0 0 0 1.04-1.081zm-3.265 3.815a.75.75 0 1 0 1.132-.984zm-6.039-.981a.75.75 0 1 0 1.132.984zM3.436 7.723A.75.75 0 1 0 4.476 8.8zM.244 3.862a.75.75 0 0 0 1.012 1.107zM10.2 1.5a13.2 13.2 0 0 1 8.939 3.469l1.012-1.107A14.7 14.7 0 0 0 10.2 0zm0 5a8.22 8.22 0 0 1 5.719 2.3l1.04-1.081A9.72 9.72 0 0 0 10.2 5zm0 5a3.241 3.241 0 0 1 2.454 1.119l1.132-.984A4.741 4.741 0 0 0 10.2 10zm-2.459 1.119A3.241 3.241 0 0 1 10.2 11.5V10a4.741 4.741 0 0 0-3.59 1.634zM4.476 8.8A8.22 8.22 0 0 1 10.2 6.5V5a9.72 9.72 0 0 0-6.764 2.723zm-3.22-3.831A13.2 13.2 0 0 1 10.2 1.5V0A14.7 14.7 0 0 0 .244 3.862z" transform="translate(140.805 647.625)" style="fill:#2a323b"/>
        </g>
    </g>
</svg>
